<svg width="425" height="142" viewBox="0 0 425 142" fill="none" xmlns="http://www.w3.org/2000/svg">
<g clip-path="url(#clip0_207_677)">
<path d="M218.648 63.2895C218.648 72.665 214.48 76.0766 209.62 78.6326L219.962 99.4001H207.23L198.432 81.3448H195.578H183.154V99.4001H171.417V45.1561H183.147V45.2342L197.731 45.1561C204.212 45.1561 218.648 45.1561 218.648 63.2895ZM196.81 70.8048C200.207 70.8048 207.768 70.8829 207.768 63.2895C207.768 55.7741 200.667 55.7741 197.04 55.7741H183.15V70.8084L196.81 70.8048ZM237.398 99.4001H225.746V56.2392H237.398V99.4001ZM237.398 53.14H225.746V42.6001H237.398V53.14ZM265.894 73.052C275.694 74.5252 286.808 76.2292 286.808 86.5349C286.808 97.3056 279.09 99.4001 265.816 99.4001C256.016 99.4001 249.301 97.618 245.827 94.1319C242.817 91.1108 239.983 87.4685 240.061 85.2214V84.3694H254.933V84.7563C254.933 88.4767 257.709 90.1807 265.504 90.1807C270.211 90.1807 274.688 89.5595 274.688 86.6946C274.688 83.4393 270.519 82.8216 265.813 82.2784L263.96 82.0441C251.536 80.4182 243.819 77.628 243.819 68.9482C243.819 62.9026 247.293 55.696 263.96 55.696C281.863 55.696 285.646 63.6764 285.646 70.3398V70.7267H273.686V70.3398C273.686 66.9318 270.753 65.0716 263.964 65.0716C257.405 65.0716 256.016 67.4749 256.016 68.792C256.016 70.7303 257.327 71.813 264.892 72.9774L265.894 73.0555V73.052ZM336.579 80.4147H302.005C302.855 86.226 306.326 89.0944 313.891 89.0944C320.914 89.0944 324.385 87.1561 325.465 84.2913H336.809C335.654 93.6668 328.089 99.4001 313.891 99.4001C299.072 99.4001 290.661 91.9593 290.661 77.4717C290.661 63.2895 299.306 55.5434 313.891 55.5434C319.986 55.5434 324.926 57.0947 328.553 59.6507V59.5726C336.887 65.3059 337.659 74.4507 337.043 80.4182L336.579 80.4147ZM313.891 65.8455C307.409 65.8455 303.857 68.2488 302.469 72.665H325.313C324.388 69.4097 322.224 65.8455 313.891 65.8455ZM372.463 99.4001H360.811V56.2392H372.463V99.4001ZM372.463 53.14H360.811V42.6001H372.463V53.14ZM406.247 55.9268C424.539 55.9268 425 71.348 425 77.7025V99.4001H413.348V77.7025C413.348 74.2945 414.042 66.0798 402.854 66.0798C392.664 66.0798 391.198 72.5905 391.198 78.4764V99.4001H379.468V55.9268H391.198V62.3594H391.74C394.517 58.4863 398.455 55.9268 406.247 55.9268Z" fill="black"/>
<path d="M109.31 32.3369H72.9653V68.8913H109.31V32.3369Z" fill="#8427FD"/>
<path d="M72.7846 68.8914H36.4365V105.446H72.7811V68.8914H72.7846Z" fill="url(#paint0_linear_207_677)"/>
<path d="M72.8236 32.3369H36.479V68.8913H72.8236V32.3369Z" fill="#CC45FF"/>
<path d="M36.3446 32.3369H0L16.7627 50.6159L36.3481 68.8913L36.3446 32.3369Z" fill="#41DABE"/>
<path d="M109.31 68.8914H72.9653V105.446H109.31V68.8914Z" fill="#CC45FF"/>
<path d="M109.31 105.446H72.9653L92.4374 124.427L109.31 142V105.446Z" fill="#41DABE"/>
<path fill-rule="evenodd" clip-rule="evenodd" d="M126.104 22.8833L112.111 18.5878L125.566 14.1609L130.638 0L135.221 13.7101L148.75 18.5842L134.746 23.2951L130.641 36.7531L126.108 22.8797L126.104 22.8833Z" fill="#020202"/>
</g>
<defs>
<linearGradient id="paint0_linear_207_677" x1="36.4365" y1="73.5454" x2="67.7096" y2="97.1071" gradientUnits="userSpaceOnUse">
<stop stop-color="#41DABE"/>
<stop offset="1" stop-color="#B4FF24"/>
</linearGradient>
<clipPath id="clip0_207_677">
<rect width="425" height="142" fill="white"/>
</clipPath>
</defs>
</svg>
