<svg width="425" height="95" viewBox="0 0 425 95" fill="none" xmlns="http://www.w3.org/2000/svg">
<g clip-path="url(#clip0_268_1187)">
<path fill-rule="evenodd" clip-rule="evenodd" d="M213.256 5.23083C212.101 3.19355 209.887 1.92627 207.497 1.92627C205.091 1.92627 202.893 3.19355 201.738 5.21479L156.821 84.5083C156.277 85.4668 155.991 86.5502 155.991 87.6524C155.991 88.7547 156.277 89.838 156.821 90.7966C157.976 92.8499 160.174 94.1172 162.58 94.1172H173.344C175.734 94.1172 177.932 92.8499 179.103 90.8126L207.497 40.3619L235.89 90.7966C237.045 92.8499 239.259 94.1172 241.649 94.1172H252.397C254.803 94.1172 257.017 92.8499 258.14 90.8447C259.279 88.8876 259.279 86.4493 258.156 84.5083L213.256 5.23083Z" fill="#1C1C1C"/>
<path fill-rule="evenodd" clip-rule="evenodd" d="M379.158 5.23083C378.003 3.19355 375.789 1.92627 373.399 1.92627C370.993 1.92627 368.795 3.19355 367.64 5.21479L322.724 84.5083C322.18 85.4668 321.894 86.5502 321.894 87.6524C321.894 88.7547 322.18 89.838 322.724 90.7966C323.879 92.8499 326.093 94.1172 328.483 94.1172H339.247C341.637 94.1172 343.835 92.8499 345.006 90.8126L373.399 40.3619L401.793 90.7966C402.948 92.8499 405.161 94.1172 407.552 94.1172H418.316C420.706 94.1172 422.919 92.8499 424.042 90.8447C425.181 88.8876 425.181 86.4493 424.058 84.5083L379.158 5.23083Z" fill="#1C1C1C"/>
<path fill-rule="evenodd" clip-rule="evenodd" d="M106.981 0.883301H101.847C98.4786 0.883301 95.7195 3.57829 95.7195 6.88285V16.6522C95.7195 19.9567 98.4786 22.6517 101.847 22.6517H106.981C120.279 22.6517 131.075 33.7044 131.075 47.2595C131.075 60.8307 120.279 72.4448 106.981 72.4448H72.3148C68.9301 72.4448 66.1709 75.1397 66.1709 78.4443V87.6522C66.1709 90.9567 68.9301 93.6517 72.3148 93.6517H106.981C132.342 93.6517 152.988 72.8458 152.988 47.2595C152.988 21.6892 132.342 0.883301 106.981 0.883301Z" fill="#1C1C1C"/>
<path fill-rule="evenodd" clip-rule="evenodd" d="M321.505 22.5555C323.157 22.5555 324.729 21.9138 325.916 20.7267C327.023 19.6038 327.633 18.128 327.633 16.5559L327.617 6.88285C327.617 3.57829 324.873 0.883301 321.505 0.883301H258.991C255.606 0.883301 252.863 3.57829 252.863 6.88285V16.5559C252.863 19.8605 255.606 22.5555 258.991 22.5555H279.219V88.1174C279.219 91.438 281.962 94.1169 285.347 94.1169H294.394C296.047 94.1169 297.651 93.4592 298.774 92.3042C299.913 91.1813 300.522 89.6895 300.522 88.1174V22.5555H321.505Z" fill="#1C1C1C"/>
<path d="M68.1283 4.20391C66.9733 2.15059 64.7595 0.883301 62.3693 0.883301H51.6054C49.2152 0.883301 47.0175 2.15059 45.8465 4.18786L18.7202 53.3553L0.930106 84.508C0.38604 85.4695 0.100098 86.5554 0.100098 87.6602C0.100098 88.7649 0.38604 89.8509 0.930106 90.8124C2.0851 92.8496 4.29884 94.1169 6.68903 94.1169H17.4529C19.8431 94.1169 22.0408 92.8496 23.2119 90.8124L50.2579 43.3614L68.1283 10.4922C68.6724 9.53366 68.9585 8.45029 68.9585 7.34806C68.9585 6.24582 68.6724 5.16245 68.1283 4.20391Z" fill="#2C55C6"/>
</g>
<defs>
<clipPath id="clip0_268_1187">
<rect width="425" height="93.2336" fill="white" transform="translate(0 0.883301)"/>
</clipPath>
</defs>
</svg>
