<svg width="425" height="90" viewBox="0 0 425 90" fill="none" xmlns="http://www.w3.org/2000/svg">
<g clip-path="url(#clip0_207_675)">
<path fill-rule="evenodd" clip-rule="evenodd" d="M52.7115 0.861796C53.039 0.912646 53.3466 1.05307 53.601 1.26787C53.8553 1.48267 54.0466 1.76368 54.1543 2.0805L54.2174 2.313L56.3836 13.5551C59.2811 14.6788 62.013 16.1978 64.5031 18.07L65.4119 18.7824L76.3503 15.0063C77.055 14.6988 77.8079 14.9201 78.3385 15.5313C82.0996 19.7949 85.1559 24.9396 86.9289 30.3433C87.0622 30.6446 87.1015 30.9797 87.0412 31.3041C86.9808 31.6286 86.8239 31.9264 86.5915 32.1583L86.3985 32.3194L77.7191 39.7817C78.0305 41.4504 78.1196 43.254 78.1196 45.009C78.1196 46.4226 78.0604 47.8551 77.8785 49.2238L77.7191 50.2401L86.3985 57.7099C86.6997 57.9261 86.9171 58.2416 87.0139 58.602C87.1107 58.9622 87.0807 59.3456 86.9289 59.6861C85.1598 65.0934 82.1071 70.2306 78.3422 74.4904C77.8674 75.0379 77.2219 75.2743 76.5877 75.1018L76.3503 75.0193L65.4155 71.2393C63.0158 73.1931 60.334 74.8018 57.4704 76.0243L56.3873 76.4668L54.2174 87.7164C54.1425 88.0845 53.9581 88.4207 53.689 88.6802C53.42 88.9395 53.0789 89.1094 52.7115 89.1675C49.8777 89.6925 47.0437 90 44.1247 90C41.2019 90 38.3679 89.6925 35.5342 89.1675C35.2062 89.1165 34.8982 88.9761 34.6434 88.7614C34.3884 88.5467 34.1963 88.2658 34.0874 87.9489L34.0282 87.7164L31.862 76.4668C28.9147 75.3467 26.1415 73.8047 23.6275 71.8881L22.8301 71.2393L11.8953 75.0193C11.1906 75.3268 10.4376 75.1054 9.90347 74.4904C6.13861 70.2306 3.08593 65.0934 1.31663 59.6861C1.18385 59.3846 1.14502 59.0496 1.20532 58.7254C1.26562 58.401 1.42219 58.1031 1.65418 57.8711L1.84705 57.7099L10.5229 50.2401C10.2321 48.5124 10.098 46.7614 10.1223 45.009C10.1223 43.6065 10.1779 42.1704 10.3597 40.7979L10.5229 39.7854L1.84334 32.3194C1.54225 32.1032 1.32476 31.7878 1.22803 31.4274C1.13129 31.0669 1.1613 30.6838 1.31293 30.3433C3.08222 24.9396 6.1349 19.7949 9.89975 15.5313C10.1049 15.272 10.3789 15.0771 10.6896 14.9696C11.0003 14.862 11.3349 14.8461 11.6542 14.9238L11.8953 15.0026L22.8301 18.7787C25.2627 16.7761 27.975 15.1485 30.8791 13.9488L31.862 13.5514L34.0282 2.30925C34.102 1.94061 34.2862 1.60378 34.5554 1.34426C34.8248 1.08474 35.1663 0.915028 35.5342 0.858046C41.2028 -0.286015 47.0392 -0.286015 52.7078 0.858046L52.7115 0.861796ZM295.309 31.0069C297.498 31.0069 299.518 31.4869 301.377 32.4508C303.278 33.4496 304.927 34.8793 306.191 36.6281C307.541 38.4506 308.599 40.6779 309.366 43.314C310.134 45.954 310.516 48.9426 310.516 52.2913C310.516 55.4224 310.083 58.3136 309.203 60.9647C308.402 63.4742 307.157 65.8151 305.524 67.872C303.987 69.7933 302.053 71.3541 299.859 72.4468C297.586 73.563 295.087 74.1281 292.561 74.0968C290.372 74.0968 288.539 73.7893 287.06 73.1743C285.589 72.5666 284.222 71.7261 283.014 70.6845V86.6664H270.476V31.8058H278.24L278.622 31.8244C279.182 31.8549 279.725 32.0291 280.202 32.3308C280.745 32.7028 281.14 33.2584 281.314 33.8981L282.241 36.9506L282.861 36.3019C283.492 35.6681 284.16 35.0831 284.853 34.5394C287.843 32.1979 291.531 30.9523 295.313 31.0069H295.309ZM184.978 32.4508C182.532 31.5711 179.952 31.1368 177.356 31.1683C174.144 31.1683 171.265 31.7158 168.717 32.8144C166.271 33.8409 164.056 35.3561 162.204 37.2692C160.407 39.1491 159.004 41.376 158.079 43.8165C157.116 46.3401 156.629 49.0239 156.644 51.7288C156.644 55.4224 157.2 58.6622 158.324 61.4447C159.44 64.2309 160.965 66.5595 162.894 68.4345C164.822 70.3095 167.074 71.7193 169.648 72.6718C172.222 73.6206 174.982 74.0968 177.92 74.0968C179.351 74.0968 180.85 73.9956 182.43 73.7968C184.006 73.5943 185.583 73.2343 187.163 72.7093C188.739 72.1881 190.279 71.4681 191.774 70.542C193.057 69.7545 194.266 68.757 195.401 67.5645L195.961 66.9495L192.322 62.4909C191.807 61.7672 191.054 61.4036 190.056 61.4036C189.3 61.4036 188.58 61.5797 187.894 61.9284C187.204 62.2772 186.447 62.6634 185.627 63.0909C184.722 63.5544 183.782 63.9444 182.816 64.2572C181.762 64.6059 180.509 64.7822 179.055 64.7822C176.329 64.7822 174.103 63.9947 172.378 62.4309C170.768 60.9686 169.733 58.6736 169.274 55.5424L169.184 54.8599H193.372C193.94 54.8599 194.403 54.7924 194.767 54.6613C195.131 54.5282 195.439 54.2726 195.639 53.9374C195.882 53.5052 196.034 53.0263 196.084 52.5313C196.165 51.9426 196.206 51.1813 196.206 50.2438C196.206 47.244 195.739 44.559 194.808 42.1892C193.949 39.933 192.626 37.8876 190.924 36.1894C189.227 34.5304 187.2 33.2559 184.978 32.4508ZM244.422 31.1683C247.02 31.1364 249.602 31.5707 252.049 32.4508C254.27 33.2548 256.297 34.5279 257.994 36.1856C259.651 37.8206 260.946 39.8229 261.877 42.1892C262.805 44.559 263.273 47.244 263.273 50.2438C263.273 51.1813 263.236 51.9426 263.15 52.5313C263.101 53.0263 262.948 53.5052 262.706 53.9374C262.506 54.2721 262.199 54.5278 261.837 54.6613C261.386 54.8074 260.916 54.8747 260.441 54.8599H236.251L236.339 55.5424C236.8 58.6736 237.835 60.9686 239.449 62.4309C241.173 63.9984 243.398 64.7784 246.124 64.7784C247.578 64.7784 248.833 64.6059 249.883 64.2572C250.849 63.9456 251.789 63.5569 252.693 63.0947C253.517 62.6634 254.275 62.2772 254.959 61.9322C255.646 61.5797 256.37 61.4072 257.123 61.4072C258.123 61.4072 258.877 61.7672 259.39 62.4909L263.032 66.9495L262.468 67.5645C261.392 68.7109 260.173 69.7116 258.844 70.542C257.344 71.4681 255.809 72.1918 254.234 72.7131C252.693 73.2264 251.109 73.5894 249.501 73.7968C247.919 73.9956 246.421 74.0968 244.989 74.0968C242.171 74.118 239.372 73.6356 236.719 72.6718C234.197 71.7557 231.893 70.3119 229.959 68.4345C228.032 66.5595 226.51 64.2347 225.39 61.4486C224.269 58.6622 223.709 55.4224 223.709 51.7288C223.709 48.9426 224.192 46.3065 225.149 43.8165C226.074 41.376 227.478 39.1491 229.275 37.2692C231.125 35.3565 233.338 33.8413 235.783 32.8144C238.331 31.7158 241.209 31.1644 244.418 31.1644L244.422 31.1683ZM344.619 32.6533C342.005 31.6633 339.107 31.1683 335.924 31.1683C332.713 31.1683 329.794 31.6633 327.164 32.6533C324.631 33.5822 322.317 35.0314 320.369 36.9092C318.437 38.8041 316.934 41.0991 315.962 43.6365C314.923 46.2726 314.404 49.2388 314.404 52.5313C314.404 55.8499 314.923 58.8422 315.962 61.5086C317.001 64.1709 318.469 66.432 320.369 68.2956C322.317 70.185 324.629 71.6469 327.164 72.5893C329.798 73.5943 332.713 74.0968 335.924 74.0968C339.107 74.0968 342.007 73.5943 344.619 72.5893C347.137 71.6494 349.432 70.1869 351.355 68.2956C353.229 66.432 354.686 64.1709 355.725 61.5086C356.764 58.8461 357.281 55.8499 357.281 52.5313C357.281 49.2388 356.764 46.2726 355.725 43.6365C354.755 41.1064 353.267 38.8134 351.355 36.9092C349.43 35.0295 347.135 33.5796 344.619 32.6533ZM412.538 19.7199V31.8883H422.731V40.4004H412.538V61.0847L412.553 61.4897C412.609 62.2734 412.843 62.9372 413.246 63.4772C413.718 64.1034 414.397 64.4184 415.287 64.4184C415.97 64.4334 416.644 64.2748 417.249 63.9572C417.479 63.8372 417.693 63.7322 417.897 63.6347C418.121 63.537 418.363 63.4896 418.606 63.4959C418.93 63.4809 419.25 63.573 419.516 63.7584C419.746 63.9309 419.979 64.2047 420.224 64.5797L424.026 70.482L423.41 70.9206C421.92 71.9229 420.286 72.6891 418.565 73.1931C416.541 73.7931 414.452 74.0968 412.293 74.0968C410.299 74.0968 408.541 73.8081 407.015 73.2343C405.572 72.7101 404.261 71.8731 403.173 70.782C402.117 69.6945 401.31 68.3863 400.807 66.9495C400.249 65.3364 399.974 63.6371 399.998 61.9284V40.4042H396.437L396.122 40.3854C395.621 40.3339 395.151 40.1224 394.778 39.7817C394.323 39.3692 394.093 38.7581 394.093 37.9517V33.0958L400.767 31.8094L403.235 21.6474L403.329 21.3398C403.714 20.2599 404.6 19.7199 405.985 19.7199H412.538ZM153.732 25.7046V14.9426H106.888V25.7046H123.472V73.4556H137.144V25.7046H153.732ZM216.347 13.3376V73.4556H203.81V13.3376H216.347ZM391.985 32.3719C390.824 31.4608 389.289 31.0069 387.375 31.0069C385.108 31.0069 383.017 31.6894 381.103 33.0544C379.291 34.3811 377.716 36.0092 376.445 37.8692L375.925 38.6342L375.239 34.7419C375.151 34.2763 375.022 33.8194 374.852 33.3769C374.719 33.0236 374.498 32.712 374.208 32.4733C373.895 32.2322 373.536 32.0608 373.154 31.9708C372.789 31.8831 372.416 31.833 372.04 31.8208L371.596 31.8094H364.159V73.4556H376.696V47.9115C378.585 44.4315 381.174 42.6917 384.464 42.6917C385.409 42.6917 386.192 42.7517 386.812 42.8717C387.431 42.9915 387.969 43.0554 388.429 43.0554C388.967 43.0554 389.401 42.9429 389.723 42.7142C390.006 42.4978 390.206 42.1911 390.294 41.8442L390.371 41.5292L391.985 32.3719ZM44.1209 18.6699C29.6994 18.6699 18.0229 30.4594 18.0229 45.0015C18.0229 59.5436 29.7069 71.3331 44.1209 71.3331C58.535 71.3331 70.2189 59.5436 70.2189 45.0015C70.2189 30.4594 58.535 18.6699 44.1172 18.6699H44.1209ZM288.455 40.7867C289.195 40.6104 290.024 40.5242 290.938 40.5242C291.941 40.5242 292.842 40.7229 293.651 41.1242C294.459 41.5292 295.156 42.1892 295.736 43.1115C296.313 44.0379 296.766 45.249 297.09 46.749C297.412 48.249 297.575 50.0938 297.575 52.2913C297.575 54.5938 297.371 56.5474 296.97 58.1524C296.562 59.7611 296.006 61.0661 295.289 62.0709C294.574 63.0722 293.733 63.8034 292.761 64.2572C291.758 64.7188 290.668 64.9517 289.567 64.9395C288.354 64.9395 287.193 64.7334 286.087 64.3172C285.085 63.9259 284.177 63.3255 283.421 62.5547L283.014 62.1309V44.4579C283.516 43.8544 284.055 43.2844 284.63 42.7517C285.16 42.2646 285.752 41.8532 286.392 41.5292C287.023 41.2067 287.712 40.9592 288.455 40.7867ZM335.924 40.4042C332.958 40.4042 330.787 41.4092 329.412 43.4154C328.036 45.4215 327.349 48.489 327.349 52.6138C327.349 56.7349 328.036 59.8061 329.412 61.8272C330.783 63.8522 332.958 64.8609 335.924 64.8609C338.807 64.8609 340.932 63.8484 342.293 61.8272C343.656 59.8061 344.334 56.7349 344.334 52.6138C344.334 48.489 343.656 45.4215 342.293 43.4154C340.932 41.4054 338.807 40.4042 335.924 40.4042ZM60.6381 41.3417V33.5044H27.6038V41.3417H40.1892V60.1661H48.0528V41.3417H60.6381ZM177.597 39.7592C175.197 39.7592 173.324 40.4342 171.974 41.7879C170.627 43.1379 169.737 45.0879 169.303 47.6301H184.956C184.958 46.6547 184.83 45.6834 184.574 44.7429C184.33 43.8279 183.903 42.9729 183.32 42.2304C182.704 41.4662 181.922 40.8555 181.035 40.4454C180.09 39.9879 178.943 39.7592 177.597 39.7592ZM239.043 41.7879C240.391 40.4379 242.263 39.7629 244.663 39.7629C246.013 39.7629 247.159 39.9879 248.101 40.4417C249.048 40.8992 249.808 41.4917 250.389 42.2304C250.969 42.9654 251.388 43.8054 251.643 44.7429C251.901 45.6804 252.025 46.6401 252.025 47.6301H236.373C236.802 45.0879 237.693 43.1415 239.043 41.7879Z" fill="#512FC9"/>
</g>
<defs>
<clipPath id="clip0_207_675">
<rect width="425" height="90" fill="white"/>
</clipPath>
</defs>
</svg>
