<svg width="456" height="148" viewBox="0 0 456 148" fill="none" xmlns="http://www.w3.org/2000/svg">
<path d="M282.894 112.756C256.395 132.288 217.986 142.709 184.917 142.709C138.549 142.709 96.8057 125.559 65.2253 97.0351C62.7442 94.7921 64.9673 91.7353 67.9447 93.482C102.026 113.312 144.166 125.241 187.696 125.241C217.053 125.241 249.348 119.167 279.043 106.563C283.529 104.657 287.281 109.501 282.894 112.756Z" fill="#FF9900"/>
<path d="M293.91 100.152C290.536 95.8243 271.52 98.107 262.985 99.1193C260.385 99.4369 259.988 97.1741 262.33 95.5464C277.475 84.8873 302.327 87.964 305.225 91.5369C308.123 95.1296 304.47 120.041 290.238 131.93C288.055 133.757 285.971 132.784 286.943 130.362C290.139 122.383 297.305 104.499 293.91 100.152Z" fill="#FF9900"/>
<path d="M263.58 20.2972V9.93579C263.58 8.36769 264.771 7.31567 266.2 7.31567H312.588C314.077 7.31567 315.268 8.38754 315.268 9.93579V18.8085C315.248 20.2972 313.997 22.2424 311.774 25.3191L287.737 59.6387C296.669 59.4204 306.097 60.7502 314.196 65.3156C316.022 66.3478 316.518 67.8563 316.657 69.345V80.4012C316.657 81.9097 314.99 83.6763 313.243 82.7632C298.971 75.28 280.015 74.4662 264.235 82.8426C262.627 83.716 260.94 81.9693 260.94 80.4607V69.9604C260.94 68.2732 260.96 65.395 262.647 62.8344L290.496 22.8974H266.26C264.771 22.8974 263.58 21.8454 263.58 20.2972Z" fill="#221F1F"/>
<path d="M94.3638 84.947H80.2509C78.9011 84.8477 77.8292 83.8354 77.73 82.5452V10.1148C77.73 8.66576 78.9408 7.51449 80.4493 7.51449H93.6095C94.9791 7.574 96.0708 8.62605 96.1701 9.93611V19.4043H96.4281C99.8621 10.2537 106.313 5.98608 115.007 5.98608C123.84 5.98608 129.358 10.2537 133.328 19.4043C136.742 10.2537 144.503 5.98608 152.82 5.98608C158.735 5.98608 165.206 8.42756 169.156 13.906C173.622 19.9998 172.709 28.8526 172.709 36.6137L172.69 82.3269C172.69 83.7759 171.479 84.947 169.97 84.947H155.877C154.468 84.8477 153.336 83.7163 153.336 82.3269V43.9381C153.336 40.8813 153.614 33.2592 152.939 30.3611C151.887 25.4981 148.731 24.1284 144.642 24.1284C141.228 24.1284 137.655 26.4111 136.206 30.0634C134.757 33.7157 134.896 39.8293 134.896 43.9381V82.3269C134.896 83.7759 133.685 84.947 132.177 84.947H118.084C116.655 84.8477 115.543 83.7163 115.543 82.3269L115.523 43.9381C115.523 35.8594 116.853 23.9696 106.829 23.9696C96.6861 23.9696 97.0831 35.5617 97.0831 43.9381V82.3269C97.0831 83.7759 95.8723 84.947 94.3638 84.947Z" fill="#221F1F"/>
<path d="M355.204 5.98608C376.145 5.98608 387.479 23.9696 387.479 46.8361C387.479 68.9285 374.955 86.4555 355.204 86.4555C334.64 86.4555 323.445 68.472 323.445 46.062C323.445 23.5131 334.779 5.98608 355.204 5.98608ZM355.323 20.7739C344.922 20.7739 344.267 34.9463 344.267 43.7793C344.267 52.6322 344.128 71.5288 355.204 71.5288C366.141 71.5288 366.657 56.2845 366.657 46.9949C366.657 40.8813 366.399 33.5767 364.553 27.7807C362.965 22.739 359.809 20.7739 355.323 20.7739Z" fill="#221F1F"/>
<path d="M414.633 84.947H400.58C399.171 84.8477 398.039 83.7163 398.039 82.3269L398.02 9.87656C398.139 8.54665 399.31 7.51449 400.739 7.51449H413.82C415.05 7.574 416.063 8.40771 416.341 9.53913V20.6151H416.599C420.549 10.7102 426.087 5.98608 435.833 5.98608C442.165 5.98608 448.338 8.26877 452.308 14.5213C456 20.3173 456 30.0634 456 37.0702V82.6643C455.841 83.9347 454.67 84.947 453.28 84.947H439.128C437.837 84.8477 436.766 83.895 436.627 82.6643V43.3228C436.627 35.4029 437.54 23.8108 427.794 23.8108C424.36 23.8108 421.204 26.1134 419.635 29.6069C417.651 34.0333 417.393 38.4399 417.393 43.3228V82.3269C417.373 83.7759 416.142 84.947 414.633 84.947Z" fill="#221F1F"/>
<path d="M226.601 50.3494V47.2926C216.398 47.2926 205.62 49.476 205.62 61.5048C205.62 67.5985 208.776 71.7272 214.195 71.7272C218.165 71.7272 221.718 69.2857 223.961 65.3158C226.74 60.4329 226.601 55.8477 226.601 50.3494ZM240.833 84.7484C239.9 85.5821 238.55 85.6416 237.498 85.0858C232.814 81.1954 231.98 79.3891 229.4 75.6772C221.659 83.5773 216.18 85.9394 206.136 85.9394C194.266 85.9394 185.017 78.6149 185.017 63.9462C185.017 52.4931 191.229 44.6923 200.062 40.8812C207.724 37.5068 218.423 36.9114 226.601 35.9784V34.1523C226.601 30.7977 226.859 26.8279 224.894 23.9299C223.167 21.3296 219.872 20.2577 216.974 20.2577C211.595 20.2577 206.791 23.0168 205.62 28.7334C205.382 30.0038 204.449 31.2543 203.179 31.3138L189.483 29.845C188.331 29.5869 187.061 28.654 187.379 26.8874C190.535 10.2933 205.521 5.29126 218.939 5.29126C225.807 5.29126 234.779 7.1174 240.198 12.3179C247.066 18.7293 246.411 27.2844 246.411 36.5938V58.5869C246.411 65.1968 249.15 68.0948 251.73 71.6677C252.643 72.938 252.842 74.4664 251.691 75.4192C248.813 77.821 243.691 82.2871 240.873 84.7881L240.833 84.7484Z" fill="#221F1F"/>
<path d="M41.5845 50.3494V47.2926C31.3819 47.2926 20.6037 49.476 20.6037 61.5048C20.6037 67.5985 23.7597 71.7272 29.1786 71.7272C33.1485 71.7272 36.7015 69.2857 38.9445 65.3158C41.7234 60.4329 41.5845 55.8477 41.5845 50.3494ZM55.8165 84.7484C54.8836 85.5821 53.5338 85.6416 52.4818 85.0858C47.7973 81.1954 46.9637 79.3891 44.3832 75.6772C36.642 83.5773 31.1636 85.9394 21.1197 85.9394C9.2498 85.9394 0 78.6149 0 63.9462C0 52.4931 6.21286 44.6923 15.0458 40.8812C22.7077 37.5068 33.4065 36.9114 41.5845 35.9784V34.1523C41.5845 30.7977 41.8425 26.8279 39.8774 23.9299C38.1505 21.3296 34.8555 20.2577 31.9575 20.2577C26.5783 20.2577 21.7748 23.0168 20.6037 28.7334C20.3655 30.0038 19.4325 31.2543 18.1622 31.3138L4.46611 29.845C3.31485 29.5869 2.04448 28.654 2.36207 26.8874C5.51813 10.2933 20.5044 5.29126 33.9226 5.29126C40.7905 5.29126 49.7624 7.1174 55.1813 12.3179C62.0492 18.7293 61.3942 27.2844 61.3942 36.5938V58.5869C61.3942 65.1968 64.1334 68.0948 66.7138 71.6677C67.6269 72.938 67.8254 74.4664 66.6741 75.4192C63.7959 77.821 58.6748 82.2871 55.8562 84.7881L55.8165 84.7484Z" fill="#221F1F"/>
</svg>
