<svg width="456" height="148" viewBox="0 0 456 148" fill="none" xmlns="http://www.w3.org/2000/svg">
<g clip-path="url(#clip0_241_763)">
<path d="M58.0124 105.808V42H72.4494V105.808H58.0124ZM338.655 81.9686C338.655 66.5483 326.771 56.9771 312.862 56.9771C298.865 56.9771 287.069 66.6369 287.069 81.9686C287.069 97.3888 298.953 107.049 312.862 107.049C326.771 107.049 338.655 97.3002 338.655 81.9686ZM324.394 81.9686C324.394 90.0332 319.024 94.5529 312.774 94.5529C306.524 94.5529 301.154 90.0332 301.154 81.9686C301.154 73.8153 306.524 69.4729 312.774 69.4729C319.024 69.4729 324.394 73.8153 324.394 81.9686ZM52.2023 87.4631C52.2023 80.2847 48.505 74.7902 41.9027 72.3088C48.1529 68.8525 50.3537 64.3328 50.3537 59.0154C50.3537 49.7101 43.6633 42 28.6981 42.0886H0V105.897H29.9305C44.9838 105.808 52.2023 98.275 52.2023 87.4631ZM35.0363 60.8765C35.0363 65.219 32.3073 67.7004 27.0255 67.7004H15.0533V54.4071H27.0255C31.8672 54.4071 35.0363 56.534 35.0363 60.8765ZM36.3568 86.4883C36.3568 90.6535 33.4517 93.4008 28.0819 93.4008H15.0533V79.5758H28.0819C33.2757 79.5758 36.3568 82.2344 36.3568 86.4883ZM177.91 70.0046C173.949 61.6741 166.554 57.0658 155.375 57.0658C142.17 57.0658 130.374 65.3962 130.374 81.9686C130.374 98.0978 140.761 107.049 155.198 107.049C165.322 107.049 173.861 102.972 177.91 94.1984L166.29 88.1721C164.178 92.0715 160.92 94.5529 155.727 94.5529C149.036 94.5529 144.723 89.7673 144.723 81.9686C144.723 74.1698 149.653 69.4729 155.639 69.4729C160.304 69.4729 163.825 71.5998 166.026 76.2081L177.91 70.0046ZM390.681 70.0046C386.72 61.6741 379.325 57.0658 368.145 57.0658C354.941 57.0658 343.144 65.3962 343.144 81.9686C343.144 98.0978 353.532 107.049 367.969 107.049C378.093 107.049 386.632 102.972 390.681 94.1984L379.061 88.1721C376.948 92.0715 373.691 94.5529 368.497 94.5529C361.807 94.5529 357.493 89.7673 357.493 81.9686C357.493 74.1698 362.423 69.4729 368.409 69.4729C373.075 69.4729 376.596 71.5998 378.797 76.2081L390.681 70.0046ZM269.639 105.808L257.578 84.3614H248.335V105.808H233.458V42H260.307C274.832 42 284.956 49.0011 284.956 62.7376C284.956 71.5112 280.642 77.7147 272.984 81.5255L286.893 105.808H269.639ZM248.423 71.6884H259.515C266.381 71.6884 269.727 67.789 269.727 63.1807C269.727 57.6861 266.558 54.673 259.515 54.673H248.423V71.6884ZM127.997 105.01V94.996C127.381 95.1733 126.5 95.3505 125.532 95.3505C123.683 95.3505 122.715 94.3757 122.715 92.6918V76.1195C122.715 63.7124 114.44 57.1544 100.795 57.1544C91.9042 57.1544 84.3336 60.4334 79.5799 64.6873L87.5907 73.7267C90.7598 70.8908 94.9853 69.1184 99.1228 69.1184C105.461 69.1184 108.454 72.3088 108.454 77.5375V79.044C105.461 78.3351 101.676 77.6261 97.0981 77.6261C85.566 77.6261 78.0834 83.2093 78.0834 92.426C78.0834 101.909 84.3336 106.871 94.017 106.871C100.619 106.871 106.517 104.124 109.598 100.579C111.447 105.276 115.497 106.517 119.458 106.517C122.187 106.606 125.356 106.162 127.997 105.01ZM108.542 90.0332C108.542 94.3757 104.405 97.2116 99.651 97.2116C95.1614 97.2116 92.9606 94.9074 92.9606 91.717C92.9606 88.3494 95.4255 85.8679 100.443 85.8679C103.524 85.8679 106.253 86.3997 108.542 86.9314V90.0332ZM442.267 105.808L425.277 76.1195L441.211 58.661H425.189L408.375 77.4488V42.0886H394.026V105.897H408.375V94.3757L415.242 87.02L425.981 105.897H442.267V105.808ZM229.673 105.808L212.683 76.1195L228.616 58.661H212.419L195.781 77.4488V42.0886H181.432V105.897H195.781V94.3757L202.647 87.02L213.387 105.897H229.673V105.808ZM451.07 96.9457C454.063 96.9457 455.824 98.8068 455.824 101.643C455.824 104.479 454.063 106.34 451.07 106.34C448.077 106.34 446.317 104.479 446.317 101.643C446.317 98.8068 448.077 96.9457 451.07 96.9457ZM451.07 105.719C453.447 105.719 455.032 104.301 455.032 101.643C455.032 98.984 453.359 97.5661 451.07 97.5661C448.693 97.5661 447.109 98.984 447.109 101.643C447.021 104.39 448.693 105.719 451.07 105.719ZM449.222 99.2499H451.158C452.303 99.2499 452.919 99.8702 452.919 100.756C452.919 101.554 452.567 101.997 451.951 102.263L452.831 103.947H451.951L451.158 102.44H450.102V103.947H449.222V99.2499ZM450.102 99.9589V101.643H451.07C451.686 101.643 452.039 101.465 452.039 100.845C452.039 100.313 451.774 100.047 451.158 100.047H450.102V99.9589Z" fill="black"/>
</g>
<defs>
<clipPath id="clip0_241_763">
<rect width="456" height="65" fill="white" transform="translate(0 42)"/>
</clipPath>
</defs>
</svg>
