<svg width="456" height="148" viewBox="0 0 456 148" fill="none" xmlns="http://www.w3.org/2000/svg">
<path fill-rule="evenodd" clip-rule="evenodd" d="M108.567 62.3376C107.854 65.0095 106.429 66.9689 104.381 68.2158C102.333 69.4627 99.3935 70.0861 95.6528 70.0861H83.7185L87.9044 54.5001H99.8388C103.579 54.5001 106.162 55.1236 107.587 56.3705C108.923 57.7064 109.279 59.6658 108.567 62.3376ZM120.947 62.0705C122.461 56.4595 121.837 52.0955 119.076 49.0673C116.315 46.0392 111.417 44.5251 104.559 44.5251H77.8403L61.8091 104.197H74.8122L81.2247 80.1501H89.6857C91.556 80.1501 93.07 80.4173 94.1388 81.0408C95.2075 81.6642 95.92 82.733 96.0981 84.3361L98.4138 104.197H112.218L109.992 85.672C109.547 81.5751 107.676 79.0814 104.292 78.3689C108.567 77.122 112.129 75.0736 114.979 72.2236C117.918 69.3736 119.878 65.9892 120.947 62.0705Z" fill="#0F53A5"/>
<path fill-rule="evenodd" clip-rule="evenodd" d="M152.297 82.8218C151.228 86.8296 149.536 89.9468 147.309 92.0843C145.082 94.2218 142.411 95.2906 139.204 95.2906C135.998 95.2906 133.861 94.2218 132.703 92.1734C131.545 90.0359 131.545 87.0078 132.614 83.089C133.682 79.0812 135.375 76.0531 137.69 73.7374C140.006 71.5109 142.767 70.3531 145.884 70.3531C149.001 70.3531 151.139 71.4218 152.207 73.5593C153.365 75.6968 153.365 78.814 152.297 82.8218ZM157.997 61.714L156.393 67.7703C155.681 65.6328 154.345 63.8515 152.297 62.6046C150.248 61.3578 147.843 60.6453 144.815 60.6453C141.164 60.6453 137.69 61.6249 134.306 63.4953C130.922 65.3656 127.982 68.0374 125.489 71.4218C122.995 74.8062 121.125 78.7249 119.967 83.089C118.809 87.4531 118.542 91.2828 119.254 94.5781C119.967 97.8734 121.481 100.456 123.797 102.237C126.112 104.019 129.14 104.909 132.881 104.909C135.82 104.909 138.67 104.286 141.342 103.039C144.014 101.792 146.329 100.1 148.2 97.9624L146.507 104.286H158.976L170.376 61.8031L157.997 61.714Z" fill="#115BA5"/>
<path fill-rule="evenodd" clip-rule="evenodd" d="M215.353 61.7141H179.104L176.522 71.1547H197.629L169.753 95.2907L167.348 104.197H204.843L207.337 94.7563H184.715L213.126 70.2641L215.353 61.7141Z" fill="#0F53A5"/>
<path fill-rule="evenodd" clip-rule="evenodd" d="M247.326 82.7328C246.169 86.9187 244.565 90.0359 242.339 92.0843C240.112 94.1328 237.44 95.2015 234.323 95.2015C227.822 95.2015 225.595 91.0156 227.822 82.7328C228.89 78.6359 230.583 75.5187 232.809 73.3812C235.036 71.2437 237.797 70.264 240.914 70.264C244.031 70.264 246.169 71.3328 247.237 73.3812C248.484 75.5187 248.484 78.6359 247.326 82.7328ZM254.63 63.3171C251.78 61.5359 248.039 60.6453 243.586 60.6453C239.044 60.6453 234.858 61.5359 231.028 63.3171C227.198 65.0984 223.903 67.6812 221.142 71.0656C218.381 74.4499 216.511 78.3687 215.264 82.8218C214.106 87.2749 213.928 91.1937 214.819 94.5781C215.709 97.9624 217.669 100.545 220.519 102.327C223.458 104.108 227.109 104.998 231.651 104.998C236.105 104.998 240.29 104.108 244.12 102.327C247.95 100.545 251.245 97.9624 253.917 94.5781C256.589 91.1937 258.548 87.2749 259.795 82.8218C260.953 78.3687 261.131 74.4499 260.241 71.0656C259.439 67.6812 257.569 65.0984 254.63 63.3171Z" fill="#0F53A5"/>
<path fill-rule="evenodd" clip-rule="evenodd" d="M385.373 82.8218C384.304 86.8296 382.612 89.9468 380.386 92.0843C378.159 94.2218 375.487 95.2906 372.281 95.2906C369.075 95.2906 366.937 94.2218 365.779 92.1734C364.622 90.0359 364.622 87.0078 365.69 83.089C366.759 79.0812 368.451 76.0531 370.767 73.7374C373.083 71.5109 375.844 70.3531 378.961 70.3531C382.078 70.3531 384.215 71.4218 385.284 73.5593C386.442 75.6968 386.442 78.814 385.373 82.8218ZM391.073 61.714L389.47 67.7703C388.758 65.6328 387.422 63.8515 385.373 62.6046C383.325 61.3578 380.92 60.6453 377.892 60.6453C374.24 60.6453 370.767 61.6249 367.383 63.4953C363.998 65.3656 361.059 68.0374 358.565 71.4218C356.072 74.8062 354.201 78.7249 353.044 83.089C351.886 87.4531 351.619 91.2828 352.331 94.5781C353.044 97.8734 354.558 100.456 356.873 102.237C359.189 104.019 362.217 104.909 365.958 104.909C368.897 104.909 371.747 104.286 374.419 103.039C377.09 101.792 379.406 100.1 381.276 97.9624L379.584 104.286H392.053L403.453 61.8031L391.073 61.714Z" fill="#0F53A5"/>
<path fill-rule="evenodd" clip-rule="evenodd" d="M299.25 73.1141L302.456 61.5359C301.387 61.0016 299.962 60.7344 298.181 60.7344C295.331 60.7344 292.57 61.4469 289.898 62.8719C287.583 64.1188 285.712 65.8109 284.02 67.9484L285.712 61.7141H282.061H273.155L261.666 104.197H274.312L280.28 81.9313C281.17 78.725 282.684 76.1422 284.911 74.3609C287.137 72.5797 289.987 71.6 293.283 71.6C295.509 71.6891 297.38 72.1344 299.25 73.1141Z" fill="#0F53A5"/>
<path fill-rule="evenodd" clip-rule="evenodd" d="M334.519 83.0001C333.45 87.008 331.758 90.0361 329.531 92.0845C327.305 94.222 324.633 95.2017 321.516 95.2017C318.399 95.2017 316.261 94.133 315.103 91.9955C313.945 89.858 313.945 86.8298 315.014 82.733C316.083 78.7252 317.775 75.608 320.091 73.4705C322.406 71.333 325.078 70.2642 328.195 70.2642C331.313 70.2642 333.361 71.422 334.43 73.6486C335.499 75.9642 335.588 78.9923 334.519 83.0001ZM343.336 63.4064C341.02 61.5361 337.992 60.5564 334.341 60.5564C331.134 60.5564 328.106 61.2689 325.256 62.6939C322.406 64.1189 320.002 66.1673 318.22 68.6611V68.3939L320.358 61.6251H317.953H308.067L304.95 73.3814C304.95 73.5595 304.861 73.6486 304.861 73.8267L291.858 122.277H304.505L311.006 97.8736C311.63 100.011 312.966 101.792 315.014 102.95C317.063 104.197 319.556 104.82 322.495 104.82C326.147 104.82 329.709 103.93 333.005 102.149C336.3 100.367 339.239 97.7845 341.644 94.4892C344.138 91.1939 345.919 87.2751 347.077 83.0001C348.234 78.6361 348.502 74.7173 347.789 71.333C347.255 67.9486 345.652 65.2767 343.336 63.4064Z" fill="#0F53A5"/>
<path fill-rule="evenodd" clip-rule="evenodd" d="M456 61.7141H448.341C448.073 61.7141 447.895 61.7141 447.628 61.7141H443.62L441.572 64.5641C441.394 64.7422 441.216 65.0094 441.038 65.2766L440.859 65.6329L424.65 88.1657L421.266 61.7141H407.995L414.675 101.792L399.891 122.366H400.336H407.906H413.161L416.723 117.289C416.813 117.111 416.902 117.022 416.991 116.844L421.177 110.877L421.266 110.698L440.058 84.0688L456 61.7141Z" fill="#0F53A5"/>
<path fill-rule="evenodd" clip-rule="evenodd" d="M29.3017 51.3828L25.561 65.2766L47.2032 51.2938L33.0423 104.197H47.4704L68.4001 26L29.3017 51.3828Z" fill="#3395FF"/>
<path fill-rule="evenodd" clip-rule="evenodd" d="M5.96718 81.9313L0 104.197H29.5687L41.6812 58.9531C41.5922 58.9531 5.96718 81.9313 5.96718 81.9313Z" fill="#0F53A5"/>
</svg>
