<svg width="456" height="148" viewBox="0 0 456 148" fill="none" xmlns="http://www.w3.org/2000/svg">
<path d="M270.634 126.761C252.816 126.761 237.119 114.173 237.119 91.4495V44.8571H255.759V92.7573C255.759 103.221 261.154 110.087 270.799 110.087C280.443 110.087 285.839 103.221 285.839 92.7573V44.8571H304.476V91.4495C304.475 114.173 288.454 126.761 270.634 126.761Z" fill="black"/>
<path d="M108.348 21.0151H90.0894V43.0238C99.5291 39.5051 106.602 31.1834 108.348 21.0151Z" fill="black"/>
<path d="M90.0894 46.6902V124.963H108.727V72.2813C108.2 60.5148 100.615 50.6135 90.0894 46.6902Z" fill="black"/>
<path d="M154.4 44.8552C138.55 44.872 125.706 57.7246 125.706 73.5789V124.964H143.998V75.9292C143.998 67.997 150.429 61.5673 158.361 61.5673H165.043V44.8552H154.4Z" fill="black"/>
<path d="M356.063 76.8996L343.474 73.9568C342.901 73.8292 342.344 73.673 341.808 73.4901C338.167 72.2746 335.516 69.8287 335.516 66.3721C335.516 62.2658 339.624 58.8143 346.528 58.8143C355.563 58.8143 361.806 64.0722 365.422 69.001L376.985 56.2961C369.631 48.6141 360.476 42.8945 347.075 42.8945C330.237 42.8945 317.811 51.886 317.811 66.7632C317.811 80.6584 327.129 88.3421 342.169 92.1042L352.796 94.7214C354.122 95.0605 355.274 95.4282 356.268 95.8244C360.639 97.5468 362.068 99.8181 362.068 102.637C362.068 106.579 359.274 110.851 349.581 110.851C340.054 110.851 332.337 106.909 326.419 99.1936L314.703 111.234C320.915 119.082 331.215 126.766 348.053 126.766C369.142 126.766 379.932 115.812 379.932 101.915C379.93 87.8536 369.794 80.1682 356.063 76.8996Z" fill="black"/>
<path d="M225.074 108.13C224.528 108.172 220.763 108.452 219.098 108.452C219.089 108.452 219.083 108.45 219.074 108.45C219.059 108.45 219.041 108.452 219.025 108.452C208.563 108.452 205.946 105.507 205.946 93.9021V61.5321H206.02H225.074V44.8569H206.02H205.946V21H187.545V44.8569H175.775V61.5321H187.545V96.6821C187.545 116.955 194.249 125.127 215.174 125.127C221.053 125.127 224.562 124.848 225.074 124.808V108.13Z" fill="black"/>
<path d="M77.1645 44.8571L48.7178 124.964H28.4467L0 44.8571H19.1295L38.5831 103.594L58.0551 44.8571H77.1645Z" fill="black"/>
<path d="M437.688 118.751C437.933 118.552 438.19 118.325 438.421 118.123V124.963H456V73.1392C456 52.7036 441.774 42.8945 421.83 42.8945C409.572 42.8945 396.492 48.2901 390.116 59.568L402.655 71.2925C407.747 62.0912 415.471 59.7074 421.716 59.6268C431.631 59.4992 438.443 66.1287 438.443 74.3445L438.43 78.7144C438.096 78.5969 437.735 78.4793 437.362 78.3618V78.3719C436.806 78.1872 436.158 77.9875 435.448 77.786C435.285 77.7407 435.123 77.692 434.955 77.6484C434.846 77.6165 434.733 77.5879 434.621 77.5577C434.428 77.5073 434.234 77.4536 434.036 77.4033C433.85 77.3562 433.659 77.3076 433.469 77.2606C433.378 77.2387 433.291 77.2169 433.202 77.1934C429.715 76.349 425.295 75.5919 421.177 75.5919C402.704 75.5919 387.827 84.0931 387.827 102.403C387.827 117.771 400.251 126.764 414.801 126.764C425.099 126.762 432.62 123.165 437.688 118.751ZM418.33 111.076C409.597 111.076 405.405 106.533 405.405 101.118C405.405 94.1305 411.517 90.4624 420.603 90.4624C427.765 90.4624 433.353 92.0337 438.42 93.9559V103.738C434.052 107.932 426.017 111.076 418.33 111.076Z" fill="black"/>
</svg>
