<svg width="456" height="158" viewBox="0 0 456 158" fill="none" xmlns="http://www.w3.org/2000/svg">
<path d="M455.715 39.0749C461.949 74.6972 365.057 121.273 239.221 143.181C113.474 165.089 6.51836 153.957 0.284466 118.334C-5.94943 82.7122 91.0322 36.1361 216.779 14.2284C342.525 -7.67942 449.481 3.45254 455.715 39.0749Z" fill="#034EA2"/>
<path d="M336.113 92.4192L335.49 55.3721H347.156V102.037H330.325L318.747 63.7433H318.48L319.104 102.037H307.526V55.3721H324.981L335.846 92.4192H336.113Z" fill="white"/>
<path d="M123.984 59.7358L117.483 102.572H104.748L113.475 55.3721H134.492L143.131 102.572H130.485L124.251 59.7358H123.984Z" fill="white"/>
<path d="M172.785 102.572L164.949 60.1811H164.681L164.414 102.572H152.57L153.639 55.3721H172.875L178.663 91.4396H178.93L184.719 55.3721H203.955L205.024 102.572H193.179L192.912 60.1811H192.645L184.808 102.572H172.785Z" fill="white"/>
<path d="M84.8877 89.2131C85.2439 90.3709 85.3329 91.5286 84.9767 92.6863C84.6205 94.2893 83.4628 95.8923 80.3458 95.8923C77.407 95.8923 75.6259 94.2003 75.6259 91.6176V87.0758H62.98V90.7271C62.98 101.236 71.2621 104.442 80.0787 104.442C88.628 104.442 95.6634 101.503 96.7321 93.6659C97.1774 91.0833 97.0883 88.5007 96.643 85.9181C94.6838 76.0329 76.7836 73.094 75.4478 67.5726C75.2697 66.7711 75.2697 65.8805 75.3587 65.079C75.7149 63.5651 76.6945 61.9621 79.6334 61.9621C82.3941 61.9621 83.9971 63.6541 83.9971 66.2368V69.1756H95.7525V65.8805C95.7525 55.6391 86.5797 54.0361 79.9006 54.0361C71.5293 54.0361 64.672 56.7969 63.4253 64.4556C63.069 66.593 63.069 68.7303 63.5143 70.8677C65.7407 80.3076 82.4832 83.1573 84.8877 89.2131Z" fill="white"/>
<path d="M238.242 89.1241C238.599 90.2818 238.688 91.4395 238.331 92.5973C237.975 94.2003 236.906 95.7142 233.789 95.7142C230.851 95.7142 229.07 94.0221 229.07 91.5286V86.9867H216.513V90.549C216.513 100.968 224.706 104.085 233.522 104.085C241.983 104.085 248.929 101.236 249.998 93.3987C250.443 90.9052 250.443 88.2335 249.998 85.74C248.038 75.9438 230.316 73.005 228.98 67.5726C228.802 66.7711 228.802 65.9696 228.891 65.1681C229.248 63.6541 230.227 62.0511 233.166 62.0511C235.927 62.0511 237.441 63.7432 237.441 66.2368V69.0865H249.107V65.7915C249.107 55.6391 239.934 54.0361 233.344 54.0361C225.062 54.0361 218.294 56.7969 217.047 64.3666C216.691 66.4149 216.691 68.5522 217.136 70.6895C219.273 80.3076 235.838 83.1573 238.242 89.1241Z" fill="white"/>
<path d="M277.782 95.4471C281.077 95.4471 282.057 93.2207 282.324 92.063C282.413 91.4396 282.413 90.9053 282.413 90.2819V55.3721H294.346V89.2132C294.346 90.1038 294.257 91.8849 294.257 92.3302C293.456 101.147 286.421 103.996 277.782 103.996C269.144 103.996 262.108 101.147 261.307 92.3302C261.218 91.8849 261.218 90.1038 261.218 89.2132V55.3721H273.151V90.2819C273.151 90.9053 273.151 91.5287 273.24 92.063C273.507 93.2207 274.487 95.4471 277.782 95.4471Z" fill="white"/>
<path d="M376.189 95.0018C379.573 95.0018 380.82 92.8644 380.998 91.6176C381.087 90.9942 381.087 90.4599 381.087 89.8365V82.9792H376.278V76.0329H393.021V88.6788C393.021 89.5693 393.021 90.1927 392.842 91.7957C392.041 100.345 384.649 103.462 376.278 103.462C367.907 103.462 360.515 100.434 359.714 91.7957C359.536 90.1927 359.536 89.5693 359.536 88.6788V68.8194C359.536 68.0179 359.625 66.5039 359.714 65.7024C360.782 56.8859 367.907 54.0361 376.278 54.0361C384.649 54.0361 391.952 56.8859 392.842 65.7024C392.931 66.7711 392.932 67.7507 392.932 68.8194V70.4224H380.998V67.7507C380.998 67.1273 380.909 66.593 380.82 65.9696C380.642 64.9009 379.751 62.4964 376.1 62.4964C372.627 62.4964 371.647 64.7228 371.38 65.9696C371.202 66.682 371.202 67.4835 371.202 68.196V89.7475C371.202 90.3708 371.202 90.9052 371.291 91.5286C371.558 92.8644 372.716 95.0018 376.189 95.0018Z" fill="white"/>
</svg>
