<svg width="456" height="148" viewBox="0 0 456 148" fill="none" xmlns="http://www.w3.org/2000/svg">
<path d="M456 69.0182V60.9981H446.041V48.5312L445.706 48.6336L436.352 51.4961L436.168 51.5522V60.9981H421.404V55.7363C421.404 53.2862 421.952 51.4106 423.033 50.161C424.105 48.9248 425.638 48.2969 427.594 48.2969C429.001 48.2969 430.457 48.6282 431.923 49.2811L432.29 49.4449V41L432.117 40.9377C430.75 40.4452 428.89 40.1985 426.586 40.1985C423.681 40.1985 421.042 40.8299 418.74 42.083C416.471 43.3031 414.602 45.1509 413.356 47.4054C412.091 49.6801 411.45 52.3065 411.45 55.2135V60.999H404.516V69.0191H411.45V102.803H421.404V69.0182H436.168V90.4876C436.168 99.3297 440.338 103.811 448.564 103.811C449.986 103.803 451.402 103.645 452.791 103.341C454.269 103.023 455.276 102.705 455.869 102.366L456 102.288V94.1944L455.595 94.4624C455.055 94.8231 454.382 95.117 453.593 95.3352C452.801 95.5579 452.139 95.6701 451.627 95.6701C449.7 95.6701 448.275 95.1509 447.389 94.1258C446.495 93.0926 446.041 91.2838 446.041 88.7544V69.0182H456ZM382.285 95.671C378.671 95.671 375.823 94.4722 373.815 92.113C371.796 89.7403 370.772 86.3595 370.772 82.0623C370.772 77.6296 371.796 74.1607 373.817 71.7462C375.825 69.3486 378.646 68.1311 382.204 68.1311C385.655 68.1311 388.402 69.2934 390.371 71.5885C392.349 73.8944 393.352 77.3357 393.352 81.82C393.352 86.3595 392.408 89.8472 390.547 92.1798C388.699 94.4954 385.919 95.671 382.285 95.671ZM382.728 59.9908C375.835 59.9908 370.359 62.0108 366.456 65.9945C362.555 69.9792 360.577 75.4921 360.577 82.3838C360.577 88.929 362.507 94.1935 366.316 98.0294C370.124 101.866 375.308 103.81 381.719 103.81C388.401 103.81 393.767 101.762 397.67 97.723C401.571 93.6885 403.548 88.2272 403.548 81.4958C403.548 74.8491 401.693 69.5454 398.034 65.7353C394.371 61.9235 389.221 59.9908 382.728 59.9908ZM344.526 59.9908C339.837 59.9908 335.958 61.1905 332.995 63.5551C330.015 65.934 328.503 69.0547 328.503 72.8301C328.503 74.7921 328.829 76.5351 329.472 78.0135C330.117 79.4973 331.117 80.8029 332.446 81.8993C333.764 82.9867 335.799 84.1258 338.497 85.2837C340.764 86.217 342.455 87.007 343.529 87.6287C344.579 88.2387 345.325 88.8515 345.745 89.4482C346.154 90.0316 346.361 90.8314 346.361 91.8173C346.361 94.6263 344.259 95.9925 339.931 95.9925C338.325 95.9925 336.494 95.6576 334.488 94.9968C332.497 94.3457 330.618 93.3926 328.916 92.1709L328.503 91.8752V101.458L328.654 101.53C330.063 102.18 331.839 102.727 333.932 103.159C336.021 103.59 337.918 103.81 339.568 103.81C344.656 103.81 348.754 102.605 351.742 100.227C354.753 97.8308 356.278 94.6379 356.278 90.7307C356.278 87.9137 355.456 85.4965 353.837 83.5478C352.231 81.6152 349.442 79.8402 345.552 78.2718C342.452 77.0276 340.466 75.9953 339.648 75.2027C338.858 74.4367 338.457 73.3537 338.457 71.9831C338.457 70.7665 338.952 69.793 339.968 69.0039C340.993 68.2113 342.418 67.8078 344.204 67.8078C345.863 67.8078 347.56 68.0697 349.248 68.5827C350.935 69.0966 352.415 69.785 353.652 70.6258L354.058 70.9036V61.8122L353.902 61.7454C352.762 61.2555 351.257 60.8369 349.431 60.4985C347.611 60.1618 345.961 59.9908 344.526 59.9908ZM302.551 95.671C298.938 95.671 296.089 94.4722 294.082 92.113C292.062 89.7403 291.04 86.3595 291.04 82.0623C291.04 77.6296 292.063 74.1607 294.084 71.7462C296.091 69.3486 298.912 68.1311 302.47 68.1311C305.922 68.1311 308.669 69.2934 310.638 71.5885C312.616 73.8944 313.619 77.3357 313.619 81.82C313.619 86.3595 312.675 89.8472 310.814 92.1798C308.965 94.4954 306.186 95.671 302.551 95.671ZM302.995 59.9908C296.1 59.9908 290.624 62.0108 286.723 65.9945C282.822 69.9792 280.843 75.4921 280.843 82.3838C280.843 88.9317 282.775 94.1935 286.583 98.0294C290.391 101.866 295.573 103.81 301.987 103.81C308.667 103.81 314.035 101.762 317.938 97.723C321.838 93.6885 323.816 88.2272 323.816 81.4958C323.816 74.8491 321.96 69.5454 318.3 65.7353C314.636 61.9235 309.487 59.9908 302.995 59.9908ZM265.731 68.238V60.9981H255.898V102.801H265.73V81.4166C265.73 77.7801 266.555 74.793 268.182 72.537C269.788 70.3078 271.929 69.1776 274.541 69.1776C275.428 69.1776 276.422 69.3237 277.498 69.6131C278.564 69.8999 279.337 70.2116 279.792 70.5394L280.205 70.8395V60.9269L280.045 60.8583C279.13 60.4691 277.834 60.2732 276.195 60.2732C273.724 60.2732 271.512 61.0667 269.619 62.6297C267.956 64.004 266.754 65.8885 265.836 68.238H265.731ZM238.289 59.9908C233.778 59.9908 229.753 60.9589 226.33 62.8658C222.901 64.7761 220.248 67.5059 218.444 70.9749C216.647 74.4367 215.735 78.4802 215.735 82.9894C215.735 86.9384 216.62 90.5633 218.367 93.7571C220.116 96.9571 222.592 99.4606 225.725 101.197C228.855 102.931 232.472 103.81 236.475 103.81C241.148 103.81 245.138 102.876 248.338 101.034L248.467 100.96V91.9509L248.054 92.2528C246.582 93.3195 244.961 94.1634 243.243 94.7572C241.505 95.3637 239.921 95.6701 238.532 95.6701C234.673 95.6701 231.576 94.4633 229.327 92.0836C227.074 89.6994 225.931 86.3533 225.931 82.1415C225.931 77.9039 227.123 74.4715 229.47 71.9377C231.812 69.4127 234.915 68.132 238.694 68.132C241.926 68.132 245.075 69.2266 248.054 71.3881L248.467 71.6874V62.1951L248.334 62.1203C247.212 61.4924 245.683 60.9741 243.785 60.5813C241.895 60.1894 240.046 59.9908 238.289 59.9908ZM208.963 60.9981H199.129V102.801H208.963V60.9981ZM204.146 43.1901C202.528 43.1901 201.117 43.7414 199.957 44.8324C198.792 45.9279 198.201 47.3066 198.201 48.9328C198.201 50.5342 198.785 51.887 199.937 52.9531C201.084 54.0156 202.5 54.5545 204.146 54.5545C205.792 54.5545 207.214 54.0156 208.373 52.9549C209.54 51.887 210.132 50.5342 210.132 48.9328C210.132 47.3636 209.556 45.9982 208.421 44.8769C207.288 43.7574 205.848 43.1901 204.146 43.1901ZM179.612 57.9148V102.8H189.647V44.4699H175.758L158.103 87.7961L140.971 44.4699H126.516V102.801H135.947V57.9103H136.271L154.362 102.801H161.478L179.287 57.9139L179.612 57.9148Z" fill="#706D6E"/>
<path d="M46.2581 71.2359H0V24.9778H46.2581V71.2359Z" fill="#F1511B"/>
<path d="M97.3338 71.2359H51.0757V24.9778H97.3338V71.2359Z" fill="#80CC28"/>
<path d="M46.2572 122.329H0V76.0712H46.2572V122.329Z" fill="#00ADEF"/>
<path d="M97.3338 122.329H51.0757V76.0712H97.3338V122.329Z" fill="#FBBC09"/>
</svg>
