<svg width="456" height="148" viewBox="0 0 456 148" fill="none" xmlns="http://www.w3.org/2000/svg">
<g clip-path="url(#clip0_228_669)">
<mask id="mask0_228_669" style="mask-type:luminance" maskUnits="userSpaceOnUse" x="0" y="0" width="456" height="149">
<path d="M455.831 0H0V148.198H455.831V0Z" fill="white"/>
</mask>
<g mask="url(#mask0_228_669)">
<path opacity="0.997" fill-rule="evenodd" clip-rule="evenodd" d="M55.1622 -0.0910645C57.4642 -0.0910645 59.7662 -0.0910645 62.0682 -0.0910645C76.0112 0.762936 87.9462 6.05994 97.8732 15.8009C94.2002 19.5309 90.4752 23.1939 86.6952 26.7879C74.8722 16.3969 61.3322 13.3399 46.0742 17.6169C32.5232 22.3799 23.5872 31.6119 19.2662 45.3129C15.3382 60.6069 18.5492 74.1679 28.8992 85.9949C39.2722 96.2699 51.7222 100.296 66.2482 98.0719C75.6172 96.5089 83.3422 92.1199 89.4222 84.9049C92.9652 79.7939 95.1162 74.1339 95.8742 67.9239C83.5152 67.8329 71.1562 67.8029 58.7972 67.8329C58.7972 62.6269 58.7972 57.4209 58.7972 52.2139C76.3052 52.2139 93.8142 52.2139 111.323 52.2139C113.161 64.0969 111.677 75.5389 106.87 86.5399C100.016 99.6809 89.4442 108.308 75.1542 112.42C56.8732 117.033 39.9702 114.067 24.4462 103.521C7.5562 90.7999 -0.410791 73.8189 0.546209 52.5779C2.93821 32.3769 12.9042 17.2119 30.4442 7.08294C38.1962 2.93594 46.4352 0.544936 55.1622 -0.0910645Z" fill="#4285F4"/>
<path fill-rule="evenodd" clip-rule="evenodd" d="M360.865 4.26782C366.318 4.26782 371.77 4.26782 377.223 4.26782C377.223 40.2278 377.223 76.1878 377.223 112.147C371.77 112.147 366.318 112.147 360.865 112.147C360.865 76.1878 360.865 40.2278 360.865 4.26782Z" fill="#34A752"/>
<path opacity="0.992" fill-rule="evenodd" clip-rule="evenodd" d="M152.762 40.591C167.191 40.278 178.429 46.029 186.477 57.845C192.631 68.885 193.48 80.326 189.021 92.17C183.618 104.043 174.5 111.277 161.668 113.873C148.136 116.004 136.595 112.221 127.044 102.522C119.153 93.205 116.245 82.49 118.32 70.376C120.853 58.161 127.73 49.353 138.949 43.951C143.381 42.026 147.986 40.906 152.762 40.591ZM153.307 55.302C163.209 55.303 170.086 59.844 173.936 68.923C176.914 77.763 175.521 85.815 169.756 93.078C163.318 99.571 155.775 101.296 147.128 98.254C140.203 95.047 135.993 89.689 134.496 82.181C133 73.53 135.393 66.174 141.675 60.115C145.082 57.356 148.959 55.752 153.307 55.302Z" fill="#EA4234"/>
<path opacity="0.996" fill-rule="evenodd" clip-rule="evenodd" d="M233.459 40.591C247.888 40.278 259.126 46.029 267.174 57.845C273.328 68.885 274.177 80.326 269.719 92.17C264.315 104.043 255.198 111.277 242.365 113.873C228.834 116.004 217.293 112.221 207.741 102.522C199.85 93.205 196.942 82.49 199.017 70.376C201.551 58.161 208.427 49.353 219.646 43.951C224.079 42.026 228.683 40.906 233.459 40.591ZM234.004 55.302C243.906 55.303 250.782 59.844 254.633 68.923C257.612 77.763 256.218 85.815 250.453 93.078C244.015 99.571 236.473 101.296 227.825 98.254C220.9 95.047 216.691 89.689 215.193 82.181C213.697 73.53 216.089 66.174 222.372 60.115C225.778 57.356 229.657 55.752 234.004 55.302Z" fill="#FBBC04"/>
<path opacity="0.997" fill-rule="evenodd" clip-rule="evenodd" d="M312.883 40.5909C321.24 40.2449 328.328 43.0299 334.148 48.9449C334.33 46.9509 334.39 44.9529 334.33 42.9519C339.54 42.9519 344.749 42.9519 349.96 42.9519C350.044 66.6849 349.953 90.4159 349.688 114.145C349.266 122.133 346.721 129.337 342.054 135.757C336.136 142.695 328.594 146.539 319.426 147.29C304.215 148.694 292.492 143.034 284.257 130.309C283.405 128.846 282.647 127.333 281.985 125.768C286.609 123.652 291.304 121.654 296.071 119.775C301.845 131.27 310.902 135.115 323.243 131.308C328.539 128.989 331.901 125.024 333.33 119.412C333.65 118.217 333.893 117.006 334.057 115.78C334.301 112.576 334.391 109.368 334.33 106.154C326.533 113.642 317.323 116.094 306.704 113.509C293.339 109.661 284.586 101.095 280.441 87.8109C276.887 72.8009 280.673 59.9969 291.8 49.3989C297.87 44.1789 304.899 41.2429 312.883 40.5909ZM314.519 55.3019C324.428 55.4839 331 60.2659 334.239 69.6489C336.371 76.7709 335.704 83.6109 332.24 90.1719C327.459 97.6899 320.644 100.747 311.793 99.3429C303.118 96.8489 297.816 91.1879 295.889 82.3619C294.581 74.7589 296.338 67.9789 301.16 62.0219C304.779 58.1099 309.232 55.8699 314.519 55.3019Z" fill="#4285F4"/>
<path opacity="0.991" fill-rule="evenodd" clip-rule="evenodd" d="M417.755 40.591C430.861 40.342 440.886 45.73 447.835 56.755C449.941 60.449 451.728 64.293 453.196 68.287C436.779 75.158 420.359 82.03 403.942 88.901C408.511 97.207 415.538 100.748 425.025 99.525C428.98 98.911 432.433 97.276 435.385 94.622C436.95 92.999 438.433 91.334 439.838 89.627C444.096 92.368 448.307 95.183 452.469 98.072C443.836 110.133 432.084 115.52 417.21 114.236C401.559 111.975 391.29 103.348 386.403 88.356C383.689 77.894 384.78 67.845 389.674 58.208C396.018 47.575 405.378 41.703 417.755 40.591ZM418.3 55.12C423.953 54.53 428.709 56.286 432.568 60.387C433.091 61.099 433.545 61.855 433.931 62.657C423.086 67.167 412.242 71.678 401.397 76.188C401.245 66.745 405.487 60.117 414.12 56.301C415.512 55.817 416.906 55.424 418.3 55.12Z" fill="#EA4234"/>
</g>
</g>
<defs>
<clipPath id="clip0_228_669">
<rect width="456" height="148" fill="white"/>
</clipPath>
</defs>
</svg>
