<svg width="456" height="158" viewBox="0 0 456 158" fill="none" xmlns="http://www.w3.org/2000/svg">
<g clip-path="url(#clip0_228_684)">
<path fill-rule="evenodd" clip-rule="evenodd" d="M33.3001 135.006C15.0183 125.381 5.1086 111.313 1.12193 91.0383C-4.1177 64.7832 9.43699 37.5029 32.5598 24.8594C41.2735 20.0754 50.6707 17.1139 60.8082 17.057C81.1972 17.019 101.586 17 121.975 17C125.335 17 125.734 17.4556 125.734 20.8728C125.734 36.9903 125.734 53.1079 125.677 69.2254C125.677 73.7816 126.019 78.3378 125.791 82.894C124.538 110.117 103.636 132.158 85.1839 137.796C65.3644 143.947 50.8985 141.783 44.8046 139.733C41.3305 138.309 36.3756 136.6 33.3001 135.006ZM34.0975 130.506C45.5449 136.942 57.8467 139.505 70.8318 137.625C100.504 133.411 123.228 107.611 121.292 74.522C120.779 65.6374 121.121 56.6959 121.121 47.8113C121.178 40.1227 121.235 32.4911 121.235 24.8025C121.235 22.4674 120.096 21.6132 117.875 21.6701C114.002 21.784 110.072 21.7271 106.199 21.7271C92.189 21.7271 78.1218 21.841 64.1115 21.7271C47.0827 21.6701 32.5028 27.3084 20.7706 39.7241C7.72842 53.4496 2.37488 69.9089 5.16555 88.5324C7.95623 106.871 17.8091 120.767 34.0975 130.506Z" fill="url(#paint0_linear_228_684)"/>
<path fill-rule="evenodd" clip-rule="evenodd" d="M115.938 85.4569C114.457 96.7335 110.356 106.529 103.009 114.958C97.428 121.394 90.6506 126.121 82.7343 129.253C62.63 137.398 39.6782 132.5 24.5857 116.895C4.82322 96.5057 4.70932 63.5871 24.3579 43.1981C34.8941 32.2632 47.8224 26.6819 63.0287 26.6819C78.4628 26.6819 93.9539 26.9097 109.388 27.8209C114.058 28.1057 114.628 28.6752 114.855 33.1745C115.767 47.9821 116.051 62.7328 116.336 77.5405C116.393 80.1033 116.108 82.6662 115.938 85.4569ZM29.1989 44.7928C15.4733 58.7462 10.9171 75.2054 16.2707 94.1137C23.8454 120.597 54.4858 135.575 80.0005 125.381C99.9339 117.464 111.78 100.037 111.609 78.5087C111.438 64.7262 111.267 50.8867 110.584 37.0472C110.356 32.491 110.185 32.2632 105.629 32.2063C92.4731 31.9215 79.3171 31.8646 66.1611 31.295C52.0369 30.6686 39.906 35.1109 29.1989 44.7928Z" fill="url(#paint1_linear_228_684)"/>
<path fill-rule="evenodd" clip-rule="evenodd" d="M106.314 71.3327C106.257 76.9141 106.94 82.2106 105.915 87.4503C101.757 108.352 85.0133 123.103 63.827 123.501C42.185 123.9 25.0423 109.32 20.4861 89.7853C14.6769 65.0679 31.2501 40.1797 57.2205 36.5917C62.574 35.8513 68.0414 36.3069 73.395 36.5347C81.6531 36.8765 89.9112 37.3321 98.0554 38.642C102.669 39.4393 103.238 40.0088 104.035 44.4511C105.63 53.2218 105.915 62.1064 106.314 71.3327ZM67.358 40.977C63.3713 40.5214 59.4416 40.8631 55.5119 41.6035C34.6103 45.4193 20.4291 65.8653 24.3589 86.7099C27.7191 104.479 42.8115 118.034 60.3529 118.945C78.8055 119.97 95.0939 108.466 100.447 90.8105C102.27 84.7735 102.042 78.6796 101.7 72.4718C101.245 63.815 101.017 55.1013 99.8779 46.4445C99.5362 44.1664 98.568 43.1982 96.2899 42.9134C86.8358 41.7744 77.3817 41.4896 67.358 40.977Z" fill="url(#paint2_linear_228_684)"/>
<path fill-rule="evenodd" clip-rule="evenodd" d="M91.9048 52.0257C95.5497 59.5434 95.8914 67.5168 96.7457 75.4332C97.7139 83.5205 96.0623 90.9812 91.8478 97.7586C85.3552 108.067 75.9011 113.193 63.6563 113.762C48.2222 114.446 34.5536 103.511 30.3391 89.8991C24.8147 72.1869 35.4079 52.2535 53.4618 47.1847C60.8087 45.1345 68.0986 46.0457 75.4455 46.9C79.1474 47.2987 82.7924 47.9821 86.3234 48.9503C88.3168 49.5768 90.367 50.1463 91.9048 52.0257ZM38.7681 96.7904C46.5136 107.611 59.7266 112.111 72.3131 107.782C85.0135 103.397 91.2213 93.4302 92.1895 83.0648C92.9299 74.6928 91.1644 66.4347 89.6267 58.2335C89.0571 55.3859 87.4055 53.9621 84.6148 53.2217C79.603 51.9118 74.4773 51.8549 69.4085 50.9436C56.9929 48.6655 45.1468 53.3926 38.1986 63.8149C31.5921 73.5538 31.7629 86.1972 38.7681 96.7904Z" fill="url(#paint3_linear_228_684)"/>
<path d="M41.7287 81.3564C41.5009 71.8453 46.171 64.0428 54.0874 60.5117C62.2885 56.8098 71.8565 58.2906 78.2352 64.954C88.4867 75.6611 84.8987 92.2912 72.8817 98.613C59.7826 105.504 44.4054 97.7587 42.0134 83.008C41.9565 82.5524 41.8426 82.0967 41.7287 81.3564Z" fill="url(#paint4_linear_228_684)"/>
<path fill-rule="evenodd" clip-rule="evenodd" d="M390.449 58.2905C390.62 60.7394 391.759 59.8282 392.728 59.2587C396.6 57.0945 400.815 56.468 405.086 57.0945C411.465 58.0627 416.534 62.9036 417.673 69.4532C418.926 76.6861 418.641 84.09 417.445 91.209C415.281 104.764 400.644 106.301 392.329 101.233C391.532 100.72 390.734 100.208 389.994 99.695C389.083 100.037 389.139 100.948 388.627 101.517C387.602 102.77 386.235 102.884 384.754 102.713C383.273 102.543 382.362 101.631 382.02 100.208C381.793 99.2963 381.679 98.3281 381.679 97.4169C381.679 79.8755 381.698 62.3341 381.736 44.7927C381.736 40.92 382.647 39.8948 385.893 39.7809C389.196 39.724 390.392 40.8061 390.392 44.1663C390.449 48.7794 390.449 53.4495 390.449 58.2905ZM391.702 67.9724C390.506 68.8837 390.449 70.1936 390.449 71.5604C390.449 76.857 390.449 82.1536 390.449 87.4502C390.449 92.5759 391.645 94.2275 396.6 95.7652C403.378 97.9294 407.934 95.4805 409.073 88.5323C409.984 82.6662 410.041 76.6292 408.902 70.7631C407.934 65.6943 403.719 63.3593 398.651 64.5553C396.202 65.1248 394.037 66.2069 391.702 67.9724Z" fill="#294035"/>
<path d="M295.054 67.1751C295.852 65.0109 296.592 63.0746 297.389 61.1382C298.528 58.2905 302.686 56.9237 305.306 58.4614C306.331 59.0879 306.9 59.9422 306.274 61.0812C304.167 65.0109 303.256 69.4532 301.433 73.4969C300.636 75.2624 299.611 76.914 298.016 77.9961C296.25 79.2491 296.478 80.3881 297.503 82.0397C300.465 86.9377 303.256 91.8356 306.046 96.8474C306.957 98.556 308.78 100.492 306.445 102.372C304.679 103.739 300.009 102.77 298.756 100.663C296.136 96.2779 293.687 91.7786 291.239 87.2794C290.555 86.1403 289.929 84.9443 289.416 83.7483C288.562 81.755 286.967 81.5841 285.145 81.9258C283.208 82.2676 283.322 83.7483 283.322 85.2291C283.322 89.5575 283.322 93.9428 283.265 98.3282C283.208 101.631 282.126 102.714 279.108 102.77C276.032 102.884 274.722 101.631 274.665 98.2712C274.608 92.7468 274.608 87.2224 274.608 81.755C274.608 69.2254 274.608 56.6959 274.665 44.1663C274.665 40.8061 275.691 39.6671 278.652 39.4393C281.841 39.2684 283.265 40.5214 283.265 44.0524C283.322 52.4244 283.265 60.7395 283.379 69.1115C283.436 70.7631 282.183 73.1552 284.746 74.0664C287.423 74.9776 291.58 73.6108 292.947 71.4466C293.744 70.1367 294.314 68.7698 295.054 67.1751Z" fill="#294035"/>
<path fill-rule="evenodd" clip-rule="evenodd" d="M367.896 64.8969C368.978 67.4028 369.49 69.7379 369.433 72.2438C369.433 80.7297 369.433 89.1587 369.433 97.5876C369.433 99.7518 369.547 101.973 366.871 102.599C364.365 103.226 362.542 102.372 361.574 99.581C358.499 101.688 355.423 103.226 351.892 103.739C344.602 104.821 337.768 101.347 335.604 95.2526C332.471 86.5958 337.54 78.8503 347.222 77.4834C350.411 77.0278 353.601 76.6861 356.847 77.2556C359.979 77.7682 360.777 76.8569 360.663 73.6676C360.378 65.8651 356.22 62.7897 348.019 64.2704C346.254 64.6121 344.488 65.0108 342.78 65.5234C340.445 66.1499 339.476 64.783 338.736 62.9605C338.053 61.195 338.736 59.8281 340.388 59.2586C347.792 56.7527 355.252 55.4997 362.656 59.4864C364.877 60.6824 366.586 62.5049 367.896 64.8969ZM354.569 95.7652C360.549 93.601 361.859 91.7215 360.948 86.4819C360.72 85.172 360.321 83.976 358.84 83.8051C354.911 83.3495 350.924 82.8369 347.108 84.6025C344.317 85.9693 343.121 88.3613 343.634 91.3798C344.204 94.4553 345.969 96.0499 349.329 96.2777C350.924 96.3916 352.519 96.3347 354.569 95.7652Z" fill="#294035"/>
<path d="M439.428 74.0665C442.333 75.4903 445.067 76.7433 447.8 78.0532C454.464 81.2995 457.311 87.3934 455.432 94.5694C454.236 99.0686 450.99 101.575 446.775 102.771C441.593 104.308 436.296 104.308 431.056 102.828C428.38 102.087 427.013 100.094 427.525 97.8726C428.038 95.4806 429.974 94.3985 432.879 95.1959C436.296 96.1641 439.713 96.6766 443.187 95.7654C445.408 95.1959 447.117 94.0568 447.459 91.7218C447.8 89.5006 446.718 87.6781 444.953 86.3682C442.219 84.3749 439.03 83.2928 436.068 81.869C427.867 77.8823 425.532 70.5924 429.974 63.1316C432.309 59.2019 436.125 57.6072 440.397 57.0377C443.415 56.639 446.49 56.9807 449.452 57.6642C452.129 58.2906 453.496 60.1701 452.983 62.2773C452.357 64.5554 450.591 65.5806 447.857 65.068C446.434 64.8402 445.067 64.3846 443.643 64.2707C440.966 63.9859 438.46 64.2707 437.093 67.0613C435.84 69.4533 436.581 71.6175 439.428 74.0665Z" fill="#294035"/>
<path d="M164.348 95.1957C168.277 97.1321 172.093 96.7904 175.966 95.9361C177.162 95.7083 178.415 95.3096 179.554 95.4235C181.377 95.6514 182.345 96.9613 182.573 98.7837C182.8 100.777 181.832 102.201 179.953 102.657C174.03 103.909 167.993 104.707 162.013 102.657C156.26 100.663 151.704 94.4554 151.533 88.3045C151.363 83.2927 151.363 78.2808 151.533 73.2121C151.818 63.4732 158.823 56.9237 168.619 56.8667C171.922 56.8667 175.283 56.9236 178.529 57.5501C181.604 58.1766 182.971 59.7143 182.573 62.0494C182.117 64.5553 180.237 65.5804 177.105 64.954C174.941 64.5553 172.834 64.0427 170.613 64.0427C164.234 64.0427 161.329 66.2069 160.304 72.5856C159.45 78.11 159.45 83.7483 160.475 89.2727C160.874 91.7216 162.013 93.7719 164.348 95.1957Z" fill="#294035"/>
<path d="M241.917 81.4702C241.917 83.8052 241.974 85.8555 242.316 87.9628C243.512 94.3415 246.986 97.1321 253.478 96.5056C255.642 96.3348 257.807 95.9361 259.971 95.5944C262.306 95.1388 263.901 95.8792 264.527 98.2142C265.153 100.549 264.014 102.258 261.509 102.77C257.066 103.625 252.51 104.365 247.954 103.568C240.265 102.144 235.196 97.5877 234 89.8422C232.975 83.3496 232.804 76.5723 234.114 70.0797C235.88 61.4799 242.145 56.8667 250.915 56.8667C254.105 56.9237 257.351 56.8667 260.54 57.4932C263.901 58.2336 265.21 59.7713 264.584 62.505C264.014 64.84 262.306 65.6374 259.117 64.897C256.497 64.3275 253.934 63.9288 251.257 64.0997C246.359 64.3275 243.056 67.2321 242.486 72.13C242.145 75.1485 242.088 78.1669 241.917 81.4702Z" fill="#294035"/>
<path d="M193.052 100.378C192.254 98.6129 192.026 96.9612 192.026 95.1957C192.026 78.3378 192.026 61.4798 192.026 44.5649C192.026 40.8061 193.165 39.724 196.64 39.7809C199.202 39.8379 200.569 41.0908 200.626 43.5967C200.683 47.1278 200.683 50.6019 200.683 54.133C200.683 65.9791 200.626 77.8252 200.683 89.6713C200.683 92.5759 200.455 95.4805 202.392 98.1003C203.246 99.3532 202.847 100.891 201.936 102.144C200.854 103.511 199.316 103.966 197.608 103.739C195.671 103.454 194.134 102.429 193.052 100.378Z" fill="#294035"/>
<path d="M315.214 62.2203C315.214 56.0125 315.158 50.1464 315.214 44.2803C315.271 40.8062 316.297 39.781 319.6 39.781C322.846 39.781 323.814 40.8061 323.814 44.3942C323.852 59.8471 323.852 75.3194 323.814 90.8105C323.814 93.2594 323.871 95.7084 325.352 97.8726C326.377 99.2964 326.035 100.777 325.067 102.087C323.985 103.511 322.447 103.966 320.739 103.682C317.606 103.226 315.67 100.663 315.499 96.9044C314.93 85.4569 315.271 73.9525 315.214 62.2203Z" fill="#294035"/>
<path d="M214.123 91.2659C214.123 83.7482 214.123 76.5722 214.123 69.3392C214.123 67.9154 214.066 66.6055 212.414 65.8082C210.478 64.8969 210.535 62.9036 210.649 61.0811C210.82 59.2586 212.3 58.6321 213.781 58.2335C214.806 58.0057 215.832 57.8348 216.857 57.7209C220.445 57.3792 222.495 59.1447 222.495 62.7327C222.533 72.4147 222.533 82.0966 222.495 91.7785C222.495 93.7719 222.78 95.7082 223.862 97.4738C224.944 99.2962 225.229 101.29 223.463 102.599C221.584 103.909 219.249 103.852 217.369 102.429C215.319 100.891 214.123 98.7837 214.18 96.05C214.18 94.5692 214.18 93.0315 214.123 91.2659Z" fill="#294035"/>
<path d="M222.383 44.6788C223.522 47.1847 223.009 49.178 220.788 50.431C218.965 51.4561 216.972 51.3992 215.377 49.7476C213.84 48.0959 213.726 46.1596 214.922 44.3371C216.573 41.7173 219.763 41.7742 222.383 44.6788Z" fill="#294035"/>
</g>
<defs>
<linearGradient id="paint0_linear_228_684" x1="19.119" y1="123.387" x2="123.684" y2="21.5562" gradientUnits="userSpaceOnUse">
<stop stop-color="#27B7D1"/>
<stop offset="0.3" stop-color="#27B7D1"/>
<stop offset="0.6" stop-color="#8EBF4A"/>
<stop offset="1" stop-color="#8EBF4A"/>
</linearGradient>
<linearGradient id="paint1_linear_228_684" x1="19.1183" y1="123.387" x2="123.683" y2="21.5562" gradientUnits="userSpaceOnUse">
<stop stop-color="#27B7D1"/>
<stop offset="0.3" stop-color="#27B7D1"/>
<stop offset="0.6" stop-color="#8EBF4A"/>
<stop offset="1" stop-color="#8EBF4A"/>
</linearGradient>
<linearGradient id="paint2_linear_228_684" x1="19.1192" y1="123.387" x2="123.684" y2="21.5562" gradientUnits="userSpaceOnUse">
<stop stop-color="#27B7D1"/>
<stop offset="0.3" stop-color="#27B7D1"/>
<stop offset="0.6" stop-color="#8EBF4A"/>
<stop offset="1" stop-color="#8EBF4A"/>
</linearGradient>
<linearGradient id="paint3_linear_228_684" x1="19.1195" y1="123.387" x2="123.684" y2="21.5561" gradientUnits="userSpaceOnUse">
<stop stop-color="#27B7D1"/>
<stop offset="0.3" stop-color="#27B7D1"/>
<stop offset="0.6" stop-color="#8EBF4A"/>
<stop offset="1" stop-color="#8EBF4A"/>
</linearGradient>
<linearGradient id="paint4_linear_228_684" x1="19.1185" y1="123.387" x2="123.683" y2="21.5563" gradientUnits="userSpaceOnUse">
<stop stop-color="#27B7D1"/>
<stop offset="0.3" stop-color="#27B7D1"/>
<stop offset="0.6" stop-color="#8EBF4A"/>
<stop offset="1" stop-color="#8EBF4A"/>
</linearGradient>
<clipPath id="clip0_228_684">
<rect width="456" height="158" fill="white"/>
</clipPath>
</defs>
</svg>
