<svg width="456" height="158" viewBox="0 0 456 158" fill="none" xmlns="http://www.w3.org/2000/svg">
<g clip-path="url(#clip0_228_683)">
<path d="M282.143 118.661C281.498 118.661 277.629 116.082 271.179 116.082C262.796 116.082 256.992 121.886 256.992 129.625C256.992 137.363 262.796 143.167 271.179 143.167C277.629 143.167 281.498 140.588 282.143 140.588V154.775C280.209 155.42 276.339 156.71 270.535 156.71C255.702 156.71 242.804 146.391 242.804 129.625C242.804 114.147 254.412 102.539 270.535 102.539C276.339 102.539 281.498 103.828 282.143 104.473V118.661ZM145.424 118.661C144.78 118.661 140.91 116.082 134.461 116.082C126.078 116.082 120.274 121.886 120.274 129.625C120.274 137.363 126.078 143.167 134.461 143.167C140.91 143.167 144.78 140.588 145.424 140.588V154.775C143.49 155.42 139.621 156.71 133.816 156.71C118.984 156.71 106.086 146.391 106.086 129.625C106.086 114.147 117.694 102.539 133.816 102.539C140.266 102.539 144.78 103.828 145.424 104.473V118.661ZM322.772 116.726C315.033 116.726 309.228 122.53 309.228 130.269C309.228 138.008 315.033 143.812 322.772 143.812C330.51 143.812 336.314 138.008 336.314 130.269C336.314 122.53 330.51 116.726 322.772 116.726ZM350.502 130.269C350.502 145.102 338.894 157.355 323.416 157.355C307.294 157.355 296.331 145.102 296.331 130.269C296.331 115.436 307.939 103.184 323.416 103.184C338.894 103.184 350.502 115.436 350.502 130.269ZM226.037 116.082C226.037 116.082 220.233 114.792 215.719 114.792C210.559 114.792 207.335 116.726 207.335 119.306C207.335 122.531 211.204 123.82 213.139 124.465L217.008 125.755C225.392 128.334 229.261 134.139 229.261 140.588C229.261 153.486 217.653 158 207.98 158C200.886 158 194.437 156.71 193.792 156.71V145.102C195.081 145.102 200.241 147.036 206.045 147.036C212.494 147.036 215.719 145.102 215.719 142.522C215.719 139.942 213.139 138.653 209.914 137.363C209.269 137.363 207.98 136.718 207.335 136.718C200.241 134.138 193.792 130.269 193.792 121.886C193.792 112.212 200.886 105.763 213.139 105.763C219.588 105.763 225.392 107.053 226.037 107.698V116.082Z" fill="#C4122E"/>
<path d="M91.8982 48.3673C91.8982 44.4982 88.6735 41.9185 85.4488 41.9185C81.5796 41.9185 79 44.4982 79 48.3673V61.91C79 65.7791 82.2247 68.3588 85.4488 68.3588C88.6735 68.3588 91.8982 65.7791 91.8982 61.91V48.3673ZM128.012 30.955C128.012 27.0856 124.788 24.5061 121.563 24.5061C118.338 24.5061 115.114 27.7305 115.114 30.955V62.555C115.114 66.4242 118.338 69.0038 121.563 69.0038C124.788 69.0038 128.012 65.7791 128.012 62.555V30.955ZM163.481 6.44899C163.481 2.57958 160.257 0 157.033 0C153.163 0 150.584 2.57958 150.584 6.44899V75.4526C150.584 79.3218 153.808 81.9014 157.033 81.9014C160.257 81.9014 163.481 79.3218 163.481 75.4526V6.44899ZM198.951 30.955C198.951 27.0856 195.727 24.5061 192.502 24.5061C188.633 24.5061 186.053 27.7305 186.053 30.955V62.555C186.053 66.4242 189.277 69.0038 192.502 69.0038C196.371 69.0038 198.951 65.7791 198.951 62.555V30.955ZM234.42 48.3673C234.42 44.4982 231.841 41.9185 227.971 41.9185C224.102 41.9185 221.522 44.4982 221.522 48.3673V61.91C221.522 65.7791 224.102 68.3588 227.971 68.3588C231.841 68.3588 234.42 65.7791 234.42 61.91V48.3673ZM270.534 30.955C270.534 27.0856 267.31 24.5061 264.086 24.5061C260.861 24.5061 257.637 27.0856 257.637 30.955V62.555C257.637 66.4242 260.216 69.0038 264.086 69.0038C267.955 69.0038 270.534 66.4242 270.534 62.555V30.955ZM306.004 6.44899C306.004 2.57958 303.424 0 299.555 0C295.686 0 293.106 2.57958 293.106 6.44899V75.4526C293.106 79.3218 295.686 81.9014 299.555 81.9014C303.424 81.9014 306.004 79.3218 306.004 75.4526V74.8082V6.44899ZM341.473 30.955C341.473 27.0856 338.893 24.5061 335.024 24.5061C331.155 24.5061 328.575 27.0856 328.575 30.955V62.555C328.575 66.4242 331.155 69.0038 335.024 69.0038C338.893 69.0038 341.473 66.4242 341.473 62.555V30.955ZM376.942 48.3673C376.942 44.4982 374.363 41.9185 370.494 41.9185C366.624 41.9185 364.045 44.4982 364.045 48.3673V61.91C364.045 65.7791 366.624 68.3588 370.494 68.3588C374.363 68.3588 376.942 65.7791 376.942 61.91V48.3673Z" fill="#15495D"/>
<path d="M173.665 157.918H160.626V106.138H173.665V157.918Z" fill="#C4122E"/>
<path d="M369.849 148.971V149.616H367.27V155.42H366.625V149.616H364.045V148.971H369.849ZM370.494 148.971H371.784L373.718 154.775L375.653 148.971H376.943V156.065H375.653V150.261L373.718 156.065H373.073L371.139 150.261V156.065H370.494V148.971Z" fill="#C4122E"/>
</g>
<defs>
<clipPath id="clip0_228_683">
<rect width="456" height="158" fill="white"/>
</clipPath>
</defs>
</svg>
