<svg width="456" height="158" viewBox="0 0 456 158" fill="none" xmlns="http://www.w3.org/2000/svg">
<path d="M220.437 95.0621H196.452L190.431 113.214C190.342 113.757 189.977 114.033 189.335 114.033H178.487C177.757 114.033 177.579 113.668 177.757 113.027L199.284 51.5535C199.738 50.547 200.103 48.543 200.193 45.7196C200.193 45.2654 200.469 45.0784 200.923 45.0784H215.788C216.153 45.0784 216.429 45.2565 216.607 45.6217L240.593 113.116C240.771 113.757 240.593 114.024 239.952 114.024H227.732C227.277 114.024 226.912 113.748 226.725 113.294L220.437 95.0621ZM199.097 85.0333H217.703C217.427 84.0268 215.966 79.6537 213.321 71.8961C210.765 64.0494 209.037 58.6698 208.217 55.7573H208.128C207.398 59.3111 204.388 69.0727 199.097 85.0333Z" fill="#E63523"/>
<path d="M269.779 115.04C261.755 115.04 255.369 112.849 250.443 108.564C245.607 104.182 243.238 97.7073 243.238 89.2283C243.238 81.5686 245.794 75.2717 250.986 70.2573C256.188 65.2429 263.206 62.6867 271.961 62.6867C274.331 62.6867 276.344 62.8648 277.795 63.328V40.162C277.795 39.7077 278.071 39.4316 278.526 39.4316H290.291C290.745 39.4316 290.932 39.6098 290.932 40.0729V102.455C290.932 103.639 291.022 106.008 291.209 109.473C291.298 109.927 291.03 110.292 290.567 110.381C284.101 113.49 277.163 115.04 269.779 115.04ZM277.715 104.271V72.8936C276.165 72.1633 274.161 71.7981 271.694 71.7981C267.134 71.7981 263.482 73.2588 260.748 76.2692C258.014 79.1906 256.642 83.2876 256.642 88.6761C256.642 94.3317 258.014 98.5267 260.748 101.261C263.482 103.995 266.947 105.367 271.24 105.367C274.063 105.465 276.165 105.1 277.715 104.271Z" fill="#E63523"/>
<path d="M324.226 62.6868C332.073 62.6868 338.272 65.145 342.743 70.0703C347.214 74.9956 349.494 81.1946 349.494 88.6761C349.494 96.79 347.125 103.265 342.476 108.012C337.827 112.662 331.619 115.031 324.057 115.031C315.667 115.031 309.37 112.474 304.997 107.46C300.615 102.357 298.522 96.1488 298.522 88.8543C298.522 81.1946 300.891 74.8977 305.54 69.9723C310.27 65.145 316.478 62.6868 324.226 62.6868ZM323.683 71.718C320.129 71.718 317.208 73.2678 315.017 76.2782C312.826 79.2886 311.73 83.3945 311.73 88.685C311.73 93.9755 312.826 98.1705 315.017 101.27C317.208 104.37 320.307 105.919 324.226 105.919C327.602 105.919 330.425 104.459 332.705 101.635C334.985 98.7138 336.081 94.4298 336.081 88.7741C336.081 83.5727 335.075 79.4757 332.982 76.3673C330.978 73.2678 327.878 71.718 323.683 71.718Z" fill="#E63523"/>
<path d="M357.698 39.4316H369.276C369.819 39.4316 370.096 39.7077 370.096 40.251V64.6016C373.471 63.328 377.025 62.7758 380.855 62.7758C388.06 62.7758 393.805 65.0558 398.089 69.7051C402.471 74.2652 404.564 80.197 404.564 87.4024C404.564 96.0685 401.919 102.82 396.539 107.834C391.16 112.759 384.774 115.218 377.292 115.218C369.543 115.218 362.97 113.944 357.502 111.299C357.047 111.121 356.86 110.755 356.86 110.292V40.1531C356.967 39.6098 357.154 39.4316 357.698 39.4316ZM391.168 88.587C391.168 83.2965 389.984 79.2885 387.517 76.5453C385.148 73.811 381.95 72.4394 377.853 72.4394C374.843 72.4394 372.197 72.9827 370.006 74.0782V104.263C372.01 105.358 374.656 105.901 377.942 105.901C381.594 105.901 384.693 104.441 387.241 101.43C389.895 98.4377 391.168 94.1536 391.168 88.587Z" fill="#E63523"/>
<path d="M444.163 91.2322H423.366C423.455 95.4272 424.738 98.8028 427.285 101.359C429.93 103.817 433.671 105.1 438.686 105.1C443.611 105.1 447.895 104.28 451.547 102.544C452.001 102.365 452.188 102.544 452.188 103.087V110.836C452.188 111.477 452.01 111.842 451.547 112.109C447.165 114.113 441.972 115.12 435.951 115.12C431.302 115.12 427.285 114.389 423.82 112.929C420.356 111.468 417.711 109.553 415.796 106.997C413.881 104.539 412.42 101.795 411.414 98.883C410.505 95.8725 410.042 92.773 410.042 89.3975C410.042 81.9159 412.233 75.5388 416.517 70.4264C420.899 65.225 426.911 62.6777 434.482 62.6777C441.687 62.6777 447.067 64.7797 450.62 69.0637C454.174 73.3478 456 78.3622 456 84.1159C456 86.2178 455.822 88.2218 455.546 90.0476C455.457 90.5019 455.18 90.778 454.726 90.867C452.829 91.1431 449.267 91.2322 444.163 91.2322ZM423.277 83.2074H437.964C441.251 83.2074 443.068 83.1183 443.433 83.0293C443.522 82.7532 443.522 82.2989 443.522 81.5686C443.522 78.9233 442.791 76.6432 441.242 74.5502C439.781 72.4482 437.412 71.4507 434.036 71.4507C430.75 71.4507 428.203 72.5462 426.377 74.8263C424.64 77.0084 423.642 79.8318 423.277 83.2074Z" fill="#E63523"/>
<path d="M86.1006 19H136.53V139.844L86.1006 19Z" fill="#E63523"/>
<path d="M50.527 19H0V139.844L50.527 19Z" fill="#E63523"/>
<path d="M68.3132 63.5061L100.412 139.844H79.3484L69.7739 115.494H46.2427L68.3132 63.5061Z" fill="#E63523"/>
</svg>
