<svg width="478" height="45" viewBox="0 0 478 45" fill="none" xmlns="http://www.w3.org/2000/svg">
<path d="M7.7326 43.9999H0.664795V0.15332H7.7326V18.8699H17.8762L29.3941 0.15332H37.4436L23.8315 21.8803L37.3781 43.9999H29.2632L18.0071 25.6759H7.7326V43.9999Z" fill="white"/>
<path d="M52.4698 44.6543C43.9622 44.6543 40.1666 38.9608 40.1666 31.5658V11.4749H47.2344V30.3224C47.2344 36.1468 49.4594 38.5681 55.0875 38.5681C60.5192 38.5681 63.595 36.2122 63.595 29.7988V11.4749H70.6628V43.9999H64.1186V37.5211H63.8568C62.2862 41.2513 58.8177 44.6543 52.4698 44.6543Z" fill="white"/>
<path d="M85.344 43.9999H78.2762V11.4749H84.755V17.5611H85.0168C86.5219 14.0926 89.9904 10.8205 96.3383 10.8205C104.78 10.8205 108.576 16.1868 108.576 23.5818V43.9999H101.508V25.1524C101.508 19.328 99.6759 16.9066 93.7206 16.9066C87.9617 16.9066 85.344 19.1317 85.344 25.2178V43.9999Z" fill="white"/>
<path d="M124.77 44.6543C118.946 44.6543 114.43 41.6439 114.43 35.9504C114.43 30.5841 118.357 27.7701 125.294 26.7885L136.681 25.087V23.32C136.681 18.4773 134.456 17.0375 129.351 17.0375C124.181 17.0375 122.152 18.6736 122.152 22.9928V23.9744H115.346V23.32C115.346 16.0559 121.04 10.8205 129.744 10.8205C138.84 10.8205 143.421 16.3177 143.421 24.2362V43.9999H136.877V38.8954H136.55C134.652 41.9712 130.922 44.6543 124.77 44.6543ZM121.302 35.4269C121.302 37.9792 122.938 39.0262 127.061 39.0262C131.642 39.0262 136.681 37.1938 136.681 30.6496V30.0606L126.341 31.6312C122.61 32.1548 121.302 33.0055 121.302 35.4269Z" fill="white"/>
<path d="M157.911 43.9999H150.843V0.15332H157.911V43.9999Z" fill="white"/>
<path d="M185.747 43.9999H178.679V0.15332H185.747V18.8699H195.89L207.408 0.15332H215.458L201.846 21.8803L215.392 43.9999H207.277L196.021 25.6759H185.747V43.9999Z" fill="white"/>
<path d="M230.484 44.6543C221.976 44.6543 218.181 38.9608 218.181 31.5658V11.4749H225.248V30.3224C225.248 36.1468 227.474 38.5681 233.102 38.5681C238.533 38.5681 241.609 36.2122 241.609 29.7988V11.4749H248.677V43.9999H242.133V37.5211H241.871C240.3 41.2513 236.832 44.6543 230.484 44.6543Z" fill="white"/>
<path d="M269.776 44.6543C260.287 44.6543 255.313 40.9241 255.313 33.0055V32.8746H262.119V34.0526C262.119 37.5865 263.69 38.8954 269.907 38.8954C275.142 38.8954 276.124 37.7174 276.124 35.296C276.124 32.6783 274.553 31.893 269.776 31.0422L264.737 30.1915C258.913 29.1444 255.248 26.5267 255.248 20.6369C255.248 14.747 260.091 10.8205 268.598 10.8205C276.255 10.8205 282.014 14.6161 282.014 22.0112V22.6001H275.273V21.8148C275.273 18.8045 274.226 16.6449 268.402 16.6449C263.232 16.6449 261.988 18.0192 261.988 20.506C261.988 22.9928 263.166 23.7127 267.747 24.6289L273.245 25.6759C279.527 26.9194 282.799 29.7334 282.799 35.0997C282.799 41.1204 278.022 44.6543 269.776 44.6543Z" fill="white"/>
<path d="M295.967 43.9999H288.899V0.15332H295.967V16.9066H296.229C297.734 13.9617 301.202 10.8205 307.092 10.8205C315.6 10.8205 319.199 16.3831 319.199 23.5163V43.9999H312.131V25.1524C312.131 19.328 310.299 16.9066 304.344 16.9066C298.585 16.9066 295.967 19.1317 295.967 25.2833V43.9999Z" fill="white"/>
<path d="M340.126 43.9999H330.899L322.85 11.4749H330.506L334.237 29.5371L335.545 38.11H336.069L338.229 29.5371L343.922 11.4749H353.084L358.843 29.6025L360.872 38.11H361.395L362.704 29.6025L366.5 11.4749H373.829L365.78 43.9999H356.618L350.794 25.8723L348.634 17.6919H348.11L346.016 25.8723L340.126 43.9999Z" fill="white"/>
<path d="M385.96 44.6543C380.136 44.6543 375.62 41.6439 375.62 35.9504C375.62 30.5841 379.547 27.7701 386.484 26.7885L397.871 25.087V23.32C397.871 18.4773 395.646 17.0375 390.541 17.0375C385.371 17.0375 383.342 18.6736 383.342 22.9928V23.9744H376.536V23.32C376.536 16.0559 382.23 10.8205 390.934 10.8205C400.03 10.8205 404.611 16.3177 404.611 24.2362V43.9999H398.067V38.8954H397.74C395.842 41.9712 392.112 44.6543 385.96 44.6543ZM382.492 35.4269C382.492 37.9792 384.128 39.0262 388.251 39.0262C392.832 39.0262 397.871 37.1938 397.871 30.6496V30.0606L387.531 31.6312C383.801 32.1548 382.492 33.0055 382.492 35.4269Z" fill="white"/>
<path d="M419.101 43.9999H412.034V0.15332H419.101V16.9066H419.363C420.868 13.9617 424.337 10.8205 430.227 10.8205C438.734 10.8205 442.333 16.3831 442.333 23.5163V43.9999H435.266V25.1524C435.266 19.328 433.433 16.9066 427.478 16.9066C421.719 16.9066 419.101 19.1317 419.101 25.2833V43.9999Z" fill="white"/>
<path d="M458.719 44.6543C452.895 44.6543 448.379 41.6439 448.379 35.9504C448.379 30.5841 452.306 27.7701 459.243 26.7885L470.63 25.087V23.32C470.63 18.4773 468.405 17.0375 463.3 17.0375C458.13 17.0375 456.101 18.6736 456.101 22.9928V23.9744H449.295V23.32C449.295 16.0559 454.989 10.8205 463.693 10.8205C472.789 10.8205 477.37 16.3177 477.37 24.2362V43.9999H470.826V38.8954H470.499C468.601 41.9712 464.871 44.6543 458.719 44.6543ZM455.251 35.4269C455.251 37.9792 456.887 39.0262 461.01 39.0262C465.591 39.0262 470.63 37.1938 470.63 30.6496V30.0606L460.29 31.6312C456.56 32.1548 455.251 33.0055 455.251 35.4269Z" fill="white"/>
</svg>
