<svg width="181" height="18" viewBox="0 0 181 18" fill="none" xmlns="http://www.w3.org/2000/svg">
<path d="M2.936 17H0.344V0.92H2.936V7.784H6.656L10.88 0.92H13.832L8.84 8.888L13.808 17H10.832L6.704 10.28H2.936V17ZM19.3426 17.24C16.2226 17.24 14.8306 15.152 14.8306 12.44V5.072H17.4226V11.984C17.4226 14.12 18.2386 15.008 20.3026 15.008C22.2946 15.008 23.4226 14.144 23.4226 11.792V5.072H26.0146V17H23.6146V14.624H23.5186C22.9426 15.992 21.6706 17.24 19.3426 17.24ZM31.3987 17H28.8067V5.072H31.1827V7.304H31.2787C31.8307 6.032 33.1027 4.832 35.4307 4.832C38.5267 4.832 39.9187 6.8 39.9187 9.512V17H37.3267V10.088C37.3267 7.952 36.6547 7.064 34.4707 7.064C32.3587 7.064 31.3987 7.88 31.3987 10.112V17ZM45.8576 17.24C43.7216 17.24 42.0656 16.136 42.0656 14.048C42.0656 12.08 43.5056 11.048 46.0496 10.688L50.2256 10.064V9.416C50.2256 7.64 49.4096 7.112 47.5376 7.112C45.6416 7.112 44.8976 7.712 44.8976 9.296V9.656H42.4016V9.416C42.4016 6.752 44.4896 4.832 47.6816 4.832C51.0176 4.832 52.6976 6.848 52.6976 9.752V17H50.2976V15.128H50.1776C49.4816 16.256 48.1136 17.24 45.8576 17.24ZM44.5856 13.856C44.5856 14.792 45.1856 15.176 46.6976 15.176C48.3776 15.176 50.2256 14.504 50.2256 12.104V11.888L46.4336 12.464C45.0656 12.656 44.5856 12.968 44.5856 13.856ZM58.0115 17H55.4195V0.92H58.0115V17ZM68.2198 17H65.6278V0.92H68.2198V7.784H71.9398L76.1638 0.92H79.1158L74.1238 8.888L79.0918 17H76.1158L71.9878 10.28H68.2198V17ZM84.6264 17.24C81.5064 17.24 80.1144 15.152 80.1144 12.44V5.072H82.7064V11.984C82.7064 14.12 83.5224 15.008 85.5864 15.008C87.5784 15.008 88.7064 14.144 88.7064 11.792V5.072H91.2984V17H88.8984V14.624H88.8024C88.2264 15.992 86.9544 17.24 84.6264 17.24ZM99.0361 17.24C95.5561 17.24 93.7321 15.872 93.7321 12.968V12.92H96.2281V13.352C96.2281 14.648 96.8041 15.128 99.0841 15.128C101.004 15.128 101.364 14.696 101.364 13.808C101.364 12.848 100.788 12.56 99.0361 12.248L97.1881 11.936C95.0521 11.552 93.7081 10.592 93.7081 8.432C93.7081 6.272 95.4841 4.832 98.6041 4.832C101.412 4.832 103.524 6.224 103.524 8.936V9.152H101.052V8.864C101.052 7.76 100.668 6.968 98.5321 6.968C96.6361 6.968 96.1801 7.472 96.1801 8.384C96.1801 9.296 96.6121 9.56 98.2921 9.896L100.308 10.28C102.612 10.736 103.812 11.768 103.812 13.736C103.812 15.944 102.06 17.24 99.0361 17.24ZM108.641 17H106.049V0.92H108.641V7.064H108.737C109.289 5.984 110.561 4.832 112.721 4.832C115.841 4.832 117.161 6.872 117.161 9.488V17H114.569V10.088C114.569 7.952 113.897 7.064 111.713 7.064C109.601 7.064 108.641 7.88 108.641 10.136V17ZM124.836 17H121.452L118.5 5.072H121.308L122.676 11.696L123.156 14.84H123.348L124.14 11.696L126.228 5.072H129.588L131.7 11.72L132.444 14.84H132.636L133.116 11.72L134.508 5.072H137.196L134.244 17H130.884L128.748 10.352L127.956 7.352H127.764L126.996 10.352L124.836 17ZM141.645 17.24C139.509 17.24 137.853 16.136 137.853 14.048C137.853 12.08 139.293 11.048 141.837 10.688L146.013 10.064V9.416C146.013 7.64 145.197 7.112 143.325 7.112C141.429 7.112 140.685 7.712 140.685 9.296V9.656H138.189V9.416C138.189 6.752 140.277 4.832 143.469 4.832C146.805 4.832 148.485 6.848 148.485 9.752V17H146.085V15.128H145.965C145.269 16.256 143.901 17.24 141.645 17.24ZM140.373 13.856C140.373 14.792 140.973 15.176 142.485 15.176C144.165 15.176 146.013 14.504 146.013 12.104V11.888L142.221 12.464C140.853 12.656 140.373 12.968 140.373 13.856ZM153.799 17H151.207V0.92H153.799V7.064H153.895C154.447 5.984 155.719 4.832 157.879 4.832C160.999 4.832 162.319 6.872 162.319 9.488V17H159.727V10.088C159.727 7.952 159.055 7.064 156.871 7.064C154.759 7.064 153.799 7.88 153.799 10.136V17ZM168.328 17.24C166.192 17.24 164.536 16.136 164.536 14.048C164.536 12.08 165.976 11.048 168.52 10.688L172.696 10.064V9.416C172.696 7.64 171.88 7.112 170.008 7.112C168.112 7.112 167.368 7.712 167.368 9.296V9.656H164.872V9.416C164.872 6.752 166.96 4.832 170.152 4.832C173.488 4.832 175.168 6.848 175.168 9.752V17H172.768V15.128H172.648C171.952 16.256 170.584 17.24 168.328 17.24ZM167.056 13.856C167.056 14.792 167.656 15.176 169.168 15.176C170.848 15.176 172.696 14.504 172.696 12.104V11.888L168.904 12.464C167.536 12.656 167.056 12.968 167.056 13.856ZM180.65 17H177.362V13.28H180.65V17Z" fill="white"/>
</svg>
