<svg width="425" height="85" viewBox="0 0 425 85" fill="none" xmlns="http://www.w3.org/2000/svg">
<path fill-rule="evenodd" clip-rule="evenodd" d="M306.534 20H302.868C302.067 20 301.4 20.6844 301.4 21.5043V39.0093H289.601V21.5043C289.601 20.6844 289.001 20 288.135 20H284.467C283.667 20 283 20.6844 283 21.5043V63.4947C283 64.3166 283.667 65 284.467 65H288.135C289.001 65 289.601 64.3166 289.601 63.4947V45.7797H301.4V63.4947C301.4 64.3166 302.067 65 302.868 65H306.534C307.401 65 308 64.3166 308 63.4947V21.5043C308 20.6844 307.401 20 306.534 20Z" fill="#443D4E"/>
<path fill-rule="evenodd" clip-rule="evenodd" d="M217 59.7339C217 58.913 216.323 58.2286 215.511 58.2286L198.701 58.2296V45.8847H215.511C216.323 45.8847 216.999 45.27 216.999 44.3804V40.6196C216.999 39.7977 216.322 39.1143 215.51 39.1143H198.701V26.7704H215.51C216.322 26.7704 216.999 26.1548 216.999 25.2661V21.5053C216.999 20.6834 216.322 20 215.51 20H197.215H197.212H193.49C192.676 20 192 20.6834 192 21.5043V63.4947C192 64.3156 192.676 65 193.49 65H195.103H195.105H215.511C216.323 65 217 64.3843 217 63.4947V59.7339Z" fill="#443D4E"/>
<path fill-rule="evenodd" clip-rule="evenodd" d="M339 59.7339C339 58.913 338.323 58.2286 337.511 58.2286L320.701 58.2296V45.8847H337.51C338.322 45.8847 338.999 45.27 338.999 44.3804V40.6196C338.999 39.7977 338.322 39.1143 337.51 39.1143H320.701V26.7704H337.51C338.322 26.7704 338.999 26.1548 338.999 25.2661V21.5053C338.999 20.6834 338.322 20 337.51 20H319.215H319.212H315.49C314.676 20 314 20.6834 314 21.5043V63.4947C314 64.3156 314.676 65 315.49 65H317.103H317.105H337.511C338.323 65 339 64.3843 339 63.4947V59.7339Z" fill="#443D4E"/>
<path fill-rule="evenodd" clip-rule="evenodd" d="M403 59.7339C403 58.913 402.323 58.2286 401.511 58.2286L384.701 58.2296V45.8847H401.511C402.323 45.8847 402.999 45.27 402.999 44.3804V40.6196C402.999 39.7977 402.322 39.1143 401.51 39.1143H384.701V26.7704H401.51C402.322 26.7704 402.999 26.1548 402.999 25.2661V21.5053C402.999 20.6834 402.322 20 401.51 20H383.215H383.212H379.49C378.677 20 378 20.6834 378 21.5043V63.4947C378 64.3156 378.677 65 379.49 65H381.103H381.105H401.511C402.323 65 403 64.3843 403 63.4947V59.7339Z" fill="#443D4E"/>
<path fill-rule="evenodd" clip-rule="evenodd" d="M228.467 31.772V34.3579C228.467 36.3318 230.334 37.4878 232.467 38.3729L241.333 42.1832C244.666 43.6813 247 46.3336 247 50.4168V55.2476C247 59.2626 238.732 66 234.332 66C231.333 66 226.8 63.8224 223.268 61.8486C222.467 61.4411 221.934 60.4869 222.401 59.3991L223.535 57.085C224.001 56.1327 225 55.928 225.867 56.4047C228.733 57.9019 232.533 59.7392 234.332 59.7392C236.333 59.7392 240.533 56.2692 240.533 54.2953V51.3019C240.533 48.9878 238.8 47.6953 236.4 46.743L228.133 43.2037C224.934 41.843 222 39.0533 222 35.243V30.8196C222 26.3963 230.733 20 234.934 20C237.733 20 242.266 22.1093 245.267 23.743C246.2 24.2196 246.466 25.3084 246.065 26.1243L244.999 28.4383C244.666 29.2542 243.6 29.5271 242.667 29.1177C240.4 28.0299 236.6 26.2608 234.934 26.2608C233 26.2608 228.467 29.5271 228.467 31.772Z" fill="#443D4E"/>
<path fill-rule="evenodd" clip-rule="evenodd" d="M358.452 25.8818H351.795V40.9279H358.52C361.335 40.9279 364.629 35.9358 364.629 33.2679C364.629 30.6697 361.197 25.8818 358.452 25.8818ZM358.177 46.8087H351.795V63.4966C351.795 64.3853 351.177 65 350.215 65H346.579C345.755 65 345 64.3853 345 63.4966V23.1461C345 21.574 346.854 20 348.363 20H359.345C364.354 20 371 27.7851 371 32.9137C371 36.3338 367.992 41.4739 364.767 43.4583C367.374 44.8252 370.943 48.4505 370.943 51.8018V63.4966C370.943 64.3166 370.258 65 369.433 65H365.659C364.835 65 364.149 64.3166 364.149 63.4966V52.827C364.149 50.433 360.787 46.8087 358.177 46.8087Z" fill="#443D4E"/>
<path fill-rule="evenodd" clip-rule="evenodd" d="M266.088 25.8818H259.611V40.9279H266.154C268.893 40.9279 271.715 35.9358 271.715 33.2679C271.715 30.6697 268.758 25.8818 266.088 25.8818ZM265.821 46.8087H259.611V63.4966C259.611 64.3853 259.009 65 258.075 65H254.536C253.734 65 253 64.3853 253 63.4966V23.1461C253 21.574 254.803 20 256.272 20H266.956C271.829 20 278 28.0275 278 33.1562C278 36.5762 275.527 41.1761 272.669 43.8363C271.265 45.144 269.034 46.8087 265.821 46.8087Z" fill="#443D4E"/>
<path fill-rule="evenodd" clip-rule="evenodd" d="M141.484 66C137.136 66 129 60.2366 129 55.2632V21.8841C129 21.0555 129.722 20.3699 130.517 20.3699H134.002C134.854 20.3699 135.512 21.0555 135.512 21.8841V54.3689C135.512 56.7871 139.441 59.718 141.484 59.718C143.526 59.718 147.482 56.4162 147.482 53.9981V21.5142C147.482 20.6847 148.074 20 148.87 20H152.483C153.278 20 154 20.6847 154 21.5142V54.8933C154 59.718 145.827 66 141.484 66Z" fill="#443D4E"/>
<path fill-rule="evenodd" clip-rule="evenodd" d="M173.157 59.1191H166.763V44.0726H173.225C176.026 44.0726 179.306 48.8024 179.306 51.4694C179.306 54.0686 175.89 59.1191 173.157 59.1191ZM166.763 25.8809H173.157C175.89 25.8809 179.306 29.7984 179.306 32.3976C179.306 35.0646 176.026 39.4202 173.225 39.4202H166.763V25.8809ZM179.751 41.7473C182.864 39.6951 186 35.708 186 32.3976C186 27.2688 179.032 20 174.046 20H163.347C161.845 20 160 21.5731 160 23.1452V39.633V61.8538V63.4966C160 64.3862 160.751 65 161.571 65H163.347H165.191H174.277C179.263 65 186 56.5991 186 51.4694C186 48.1609 182.864 43.8225 179.751 41.7473Z" fill="#443D4E"/>
<path fill-rule="evenodd" clip-rule="evenodd" d="M107.909 42.7491L122.626 25.5057C123.156 24.8843 123.138 23.9651 122.473 23.3838L119.659 20.9259C119.045 20.3885 118.091 20.4591 117.561 21.0805L104.692 36.1591V21.5053C104.692 20.6844 104.083 20 103.205 20H99.4869C98.6755 20 98 20.6844 98 21.5053V63.4966C98 64.3166 98.6755 65 99.4869 65H103.205C104.083 65 104.692 64.3166 104.692 63.4966V49.3392L117.561 64.4187C118.091 65.0391 119.045 65.1098 119.659 64.5733L122.473 62.1154C123.138 61.5332 123.156 60.614 122.626 59.9935L107.909 42.7491Z" fill="#443D4E"/>
<path fill-rule="evenodd" clip-rule="evenodd" d="M419.51 23.4249H417.67V25.8591H419.51C420.104 25.8591 420.755 25.378 420.755 24.6699C420.755 23.9061 420.104 23.4249 419.51 23.4249ZM420.641 29.4533L418.859 26.7364H417.67V29.4533H416.708V22.576H419.51C420.67 22.576 421.745 23.3966 421.745 24.6699C421.745 26.1985 420.387 26.7081 419.991 26.7081L421.83 29.4533H420.641ZM419 20.9056C416.17 20.9056 413.906 23.1423 413.906 26.0009C413.906 28.802 416.17 31.0944 419 31.0944C421.83 31.0944 424.094 28.802 424.094 26.0009C424.094 23.1423 421.83 20.9056 419 20.9056ZM419 32C415.689 32 413 29.3115 413 26.0009C413 22.6611 415.689 20 419 20C422.34 20 425 22.6611 425 26.0009C425 29.3115 422.34 32 419 32Z" fill="#443D4E"/>
<path fill-rule="evenodd" clip-rule="evenodd" d="M64 68.647L45 57.647V79.647L64 68.647Z" fill="#00A971"/>
<path fill-rule="evenodd" clip-rule="evenodd" d="M64 16.647L45 5.64697V27.647L64 16.647Z" fill="#00A971"/>
<path fill-rule="evenodd" clip-rule="evenodd" d="M18.678 42.647L36 32.556V0.646973L0 21.62V63.675L36 84.647V52.739L18.678 42.647Z" fill="#00A971"/>
<path fill-rule="evenodd" clip-rule="evenodd" d="M36 42.647L73 63.647V21.647L36 42.647Z" fill="#00A971"/>
</svg>
