<svg width="425" height="127" viewBox="0 0 425 127" fill="none" xmlns="http://www.w3.org/2000/svg">
<path fill-rule="evenodd" clip-rule="evenodd" d="M34.2886 76.3099C34.2886 63.4194 45.0306 59.7365 50.862 59.7365C51.3736 52.7797 58.228 37.9854 73.8807 35.4901C90.8226 32.7892 100.48 43.9814 103.652 49.9151C111.325 49.9151 125.136 55.4396 125.136 72.32C125.136 86.4381 112.245 91.1442 105.8 91.9626H47.486C42.8822 91.6558 34.2886 85.8243 34.2886 76.3099ZM103.959 63.7747C103.959 77.6741 92.6904 88.9418 78.7913 88.9418C64.8919 88.9418 53.6242 77.6741 53.6242 63.7747C53.6242 49.8753 64.8919 38.6076 78.7913 38.6076C92.6904 38.6076 103.959 49.8753 103.959 63.7747ZM76.0297 54.3735L66.6281 63.7752L76.0297 73.1768L73.6793 75.5272L61.9273 63.7752L73.6793 52.0231L76.0297 54.3735ZM81.5526 54.3735L90.9543 63.7752L81.5526 73.1768L83.903 75.5272L95.6546 63.7752L83.903 52.0231L81.5526 54.3735Z" fill="url(#paint0_linear_268_1172)"/>
<g opacity="0.7">
<path d="M155.09 46.8066V80.8982H150.69V46.8066H155.09ZM179.016 46.8066L163.7 62.8988L179.349 80.8982H173.237L159.371 64.4961V61.826L173.451 46.8066H179.016Z" fill="black"/>
<path d="M186.722 68.287C186.722 74.3107 189.22 77.3225 194.214 77.3225C199.209 77.3225 201.706 74.3107 201.706 68.287C201.706 62.3905 199.209 59.4423 194.214 59.4423C189.22 59.4423 186.722 62.3905 186.722 68.287ZM182.322 68.3824C182.322 60.0382 186.286 55.8662 194.214 55.8662C202.142 55.8662 206.106 60.0382 206.106 68.3824C206.106 76.7106 202.142 80.8747 194.214 80.8747C186.318 80.8747 182.354 76.7106 182.322 68.3824Z" fill="black"/>
<path d="M228.82 60.9677C227.044 60.1095 225.015 59.6803 222.732 59.6803C217.705 59.6803 215.192 62.3584 215.192 67.7146C215.192 74.0561 217.705 77.2268 222.732 77.2268C225.015 77.2268 227.044 76.9168 228.82 76.297V60.9677ZM233.22 79.3963C230.191 80.3975 226.457 80.8982 222.018 80.8982C214.582 80.8982 210.863 76.5593 210.863 67.8814C210.863 59.8711 214.811 55.8659 222.707 55.8659C224.864 55.8659 226.901 56.2633 228.82 57.058V46.8066H233.22V79.3963Z" fill="black"/>
<path d="M250.653 55.8662C257.756 55.8662 261.308 59.3867 261.308 66.4275C261.308 67.4287 261.237 68.5016 261.094 69.6459H243.565C243.565 74.7636 246.547 77.3225 252.508 77.3225C255.346 77.3225 257.867 77.0046 260.072 76.3689V79.9449C257.867 80.5806 255.188 80.8985 252.033 80.8985C243.454 80.8985 239.166 76.6311 239.166 68.0963C239.166 59.943 242.995 55.8662 250.653 55.8662ZM243.565 65.9745H257.075C256.979 61.5879 254.839 59.3946 250.653 59.3946C246.214 59.3946 243.851 61.5879 243.565 65.9745Z" fill="black"/>
<path d="M272.107 46.8066V80.8982H267.707V46.8066H272.107ZM296.033 46.8066L280.717 62.8988L296.366 80.8982H290.254L276.387 64.4961V61.826L290.468 46.8066H296.033Z" fill="black"/>
<path d="M305.166 46.8066V80.8982H300.766V46.8066H305.166Z" fill="black"/>
<path d="M315.773 68.287C315.773 74.3107 318.271 77.3225 323.265 77.3225C328.26 77.3225 330.758 74.3107 330.758 68.287C330.758 62.3905 328.26 59.4423 323.265 59.4423C318.271 59.4423 315.773 62.3905 315.773 68.287ZM311.374 68.3824C311.374 60.0382 315.337 55.8662 323.265 55.8662C331.193 55.8662 335.157 60.0382 335.157 68.3824C335.157 76.7106 331.193 80.8747 323.265 80.8747C315.369 80.8747 311.405 76.7106 311.374 68.3824Z" fill="black"/>
<path d="M362.628 55.8662V80.8985H359.607L358.846 77.7039C355.818 79.8337 352.773 80.8985 349.713 80.8985C343.973 80.8985 341.104 77.7913 341.104 71.577V55.8662H345.503V71.6485C345.503 75.3676 347.342 77.2271 351.021 77.2271C353.542 77.2271 355.944 76.1702 358.228 74.0564V55.8662H362.628Z" fill="black"/>
<path d="M386.554 60.9677C384.778 60.1095 382.749 59.6803 380.465 59.6803C375.439 59.6803 372.926 62.3584 372.926 67.7146C372.926 74.0561 375.439 77.2268 380.465 77.2268C382.749 77.2268 384.778 76.9168 386.554 76.297V60.9677ZM390.954 79.3963C387.926 80.3975 384.192 80.8982 379.752 80.8982C372.315 80.8982 368.598 76.5593 368.598 67.8814C368.598 59.8711 372.545 55.8659 380.442 55.8659C382.598 55.8659 384.636 56.2633 386.554 57.058V46.8066H390.954V79.3963Z" fill="black"/>
</g>
<defs>
<linearGradient id="paint0_linear_268_1172" x1="121.809" y1="35.0766" x2="53.6098" y2="103.093" gradientUnits="userSpaceOnUse">
<stop stop-color="#95E4B7"/>
<stop offset="0.483932" stop-color="#10C1DF"/>
<stop offset="1" stop-color="#1C88D6"/>
</linearGradient>
</defs>
</svg>
