<svg width="425" height="72" viewBox="0 0 425 72" fill="none" xmlns="http://www.w3.org/2000/svg">
<g clip-path="url(#clip0_207_671)">
<path fill-rule="evenodd" clip-rule="evenodd" d="M178.053 60.3001L179.395 58.5001C180.29 58.0501 180.29 57.1501 180.29 56.2501C180.29 55.3501 180.29 54.4501 178.948 53.5501C178.5 52.6501 177.605 52.2001 176.263 51.7501C171.878 50.7831 167.547 49.5814 163.29 48.1501L158.369 45.0001C156.579 44.1001 155.684 42.7501 154.79 41.4001L153.448 36.0001C153.448 33.7501 153.895 31.9501 154.79 30.6001C155.684 28.8001 157.027 27.0001 158.816 26.1001C160.158 24.7501 162.395 23.4001 164.184 22.9501C168.39 21.51 172.952 21.51 177.158 22.9501C178.948 22.9501 180.737 23.8501 182.527 25.2001L186.105 28.8001C187.448 30.1501 187.895 31.9501 188.342 33.3001L178.948 36.0001C178.948 34.6501 177.605 33.3001 176.263 32.4001C174.715 31.2317 172.831 30.6001 170.895 30.6001C169.057 30.3866 167.196 30.6985 165.527 31.5001L163.737 33.3001L162.842 35.5501L163.737 37.8001L165.974 39.6001L168.658 40.5001L171.342 41.4001L180.29 44.1001L186.105 47.2501C187.448 48.6001 188.342 49.9501 188.79 51.7501C189.684 52.6501 189.684 54.4501 189.684 56.2501C189.684 58.5001 189.684 60.7501 188.342 62.1001C187.448 63.9001 186.105 65.7001 184.316 67.0501C182.527 68.4001 180.29 69.7501 178.053 70.2001C175.816 71.1001 173.132 71.5501 170.448 71.5501C165.974 71.5501 162.395 70.6501 158.816 68.4001C155.684 66.1501 153.448 63.9001 152.105 60.3001L161.053 56.7001C161.948 58.9501 163.29 60.3001 165.079 61.2001C166.421 62.1001 168.658 62.5501 170.895 62.5501C173.579 62.5501 175.369 61.6501 177.605 60.3001H178.053ZM222.79 70.2001L214.29 72.0001C211.605 72.0001 209.369 72.0001 207.132 70.6501C204.895 69.7501 203.105 67.9501 201.763 65.7001C200.421 63.4501 199.974 59.8501 199.974 55.3501V32.8501H191.474V22.5001H193.711C196.395 22.5001 199.079 22.0501 200.421 19.3501C201.316 18.4501 201.316 17.1001 201.316 13.9501V10.3501H210.263V22.5001H220.105V33.3001H209.816V60.7501L212.053 63.0001L215.632 63.4501H221L222.79 70.2001ZM254.105 31.5001L252.763 30.6001H250.527L249.184 30.1501C245.437 30.0725 241.786 31.3499 238.895 33.7501L236.211 37.3501C235.316 38.7001 235.316 40.5001 235.316 41.8501V72.0001H225.027V22.5001H233.079L234.869 28.3501C236.211 26.1001 238 24.7501 240.237 23.8501C242.84 22.401 245.762 21.6276 248.737 21.6001L256.342 22.5001L253.658 31.5001H254.105ZM279.605 71.5501C274.672 71.5367 269.848 70.0841 265.719 67.3685C261.59 64.6528 258.333 60.7906 256.342 56.2501C255 53.1001 254.105 49.9501 254.105 46.3501C254.111 41.5015 255.506 36.7574 258.125 32.6866C260.743 28.6159 264.474 25.3915 268.869 23.4001C274.754 21.0221 281.325 21.0221 287.211 23.4001C289.895 24.3001 292.579 26.1001 294.369 28.3501C296.605 30.6001 298.395 33.7501 299.29 37.3501C300.632 41.4001 301.079 45.4501 301.079 50.8501H264.842C264.842 52.6501 265.737 54.0001 267.079 55.3501C269.012 58.3771 271.823 60.7335 275.132 62.1001L280.948 63.0001C285.596 63.0062 290.073 61.237 293.474 58.0501L299.737 63.9001C297.134 66.2715 294.095 68.1061 290.79 69.3001C287.658 70.6501 283.632 71.5501 279.605 71.5501ZM277.816 30.1501C276.474 30.1501 274.684 30.1501 273.342 31.0501C270.479 32.3523 268.121 34.5661 266.632 37.3501C265.737 38.7001 264.842 40.5001 264.842 41.8501H290.342C290.342 40.5001 290.342 39.1501 289.448 37.3501C288.431 35.0336 286.721 33.0943 284.555 31.8034C282.389 30.5125 279.877 29.9345 277.369 30.1501H277.816ZM353.869 22.5001V71.5501H345.816L344.027 64.8001C342.684 67.0501 340.448 68.8501 337.763 69.7501C335.079 71.1001 332.395 71.5501 329.711 71.5501C326.468 71.6143 323.246 71.0084 320.245 69.77C317.244 68.5315 314.527 66.6869 312.263 64.3501C307.564 59.5514 304.93 53.0859 304.93 46.3501C304.93 39.6143 307.564 33.1488 312.263 28.3501C314.558 26.0549 317.28 24.2375 320.274 23.002C323.268 21.7665 326.475 21.1372 329.711 21.1501C332.395 21.1501 335.079 22.0501 337.316 22.9501C340 23.8501 342.237 25.6501 344.027 27.4501L345.816 22.5001H354.316H353.869ZM329.711 63.0001L335.079 61.6501C336.869 60.7501 338.658 59.4001 339.553 58.0501C342.463 54.8603 344.061 50.6791 344.027 46.3501C343.977 42.0369 342.39 37.8849 339.553 34.6501C338.658 33.3001 336.869 31.9501 335.079 31.0501C333.342 30.1785 331.428 29.7248 329.487 29.7248C327.546 29.7248 325.632 30.1785 323.895 31.0501L319.421 34.6501C316.511 37.8399 314.913 42.0211 314.948 46.3501C314.997 50.6633 316.585 54.8153 319.421 58.0501L323.895 61.6501C325.684 62.5501 327.474 63.0001 329.711 63.0001ZM371.316 71.5501H361.474V22.0501H369.079L371.316 26.5501C372.211 25.2001 374 23.8501 375.79 22.9501C377.132 22.0501 379.369 21.1501 381.605 21.1501C385.543 21.2086 389.338 22.64 392.342 25.2001L395.474 28.8001C396.369 27.0001 398.158 25.2001 400.395 23.4001C402.647 21.8969 405.298 21.1127 408 21.1501L413.816 22.0501C415.999 22.7587 418.007 23.9282 419.704 25.4803C421.401 27.0325 422.749 28.9314 423.658 31.0501C424.553 33.7501 425 37.3501 425 41.4001V71.5501H416.053V41.4001C416.053 36.9001 414.711 34.2001 412.921 32.4001C411.579 31.0501 408.895 30.1501 406.211 30.1501C403.974 30.1501 401.737 31.0501 400.395 32.8501C399.053 34.6501 398.158 37.3501 398.158 41.4001V71.5501H388.763V41.4001C388.763 36.9001 387.869 34.2001 386.079 32.4001C384.29 31.0501 382.053 30.1501 379.369 30.1501C377.132 30.1501 375.342 31.0501 374 32.4001C372.211 34.2001 371.316 36.4501 371.316 39.6001V71.1001V71.5501Z" fill="black"/>
<path fill-rule="evenodd" clip-rule="evenodd" d="M95.2897 22.95L141.816 19.8C144.948 19.8 147.184 22.95 145.395 25.2L112.737 70.2C111.842 70.65 110.948 71.55 109.605 71.55H36.2371C35.6808 71.4823 35.1481 71.2841 34.6819 70.9715C34.2157 70.6588 33.829 70.2404 33.5529 69.75L0.894968 25.2C-0.894506 22.95 0.894968 19.35 4.02655 19.8L50.5529 22.95L70.2371 1.35C71.5792 -0.45 74.7108 -0.45 75.6055 1.35L95.2897 22.5V22.95ZM105.132 64.35L74.7108 53.1V64.35H105.132ZM71.1318 64.35V53.1L40.7108 64.35H71.5792H71.1318ZM67.5529 50.85L36.6844 62.1L14.316 30.6L68.0002 50.4L67.5529 50.85ZM78.2897 50.85L109.605 62.1L131.974 30.6L78.2897 50.4V50.85ZM71.1318 48.15V10.8L46.0792 38.7L71.1318 47.7V48.15ZM74.7108 48.15V10.8L100.211 38.7L74.7108 47.7V48.15ZM38.4739 36L44.2897 29.7L15.6581 27.9L38.4739 36ZM107.369 36L101.553 29.7L129.737 27.9L107.369 36Z" fill="#006CFF"/>
</g>
<defs>
<clipPath id="clip0_207_671">
<rect width="425" height="72" fill="white"/>
</clipPath>
</defs>
</svg>
