<svg width="425" height="57" viewBox="0 0 425 57" fill="none" xmlns="http://www.w3.org/2000/svg">
<path d="M138.913 17.9734H128.241L112.124 33.9118V1.26733H104.072V55.1718H112.124V42.5381L118.503 36.7612L131.237 55.1718H141.143L124.261 31.4527L138.913 17.9734Z" fill="#476FFF"/>
<path d="M54.4262 24.0685C54.4262 29.1374 51.6449 33.2466 48.2138 33.2466C44.7827 33.2466 42.0015 29.1374 42.0015 24.0685C42.0015 18.9994 44.7827 14.8901 48.2138 14.8901C51.6449 14.8901 54.4262 18.9994 54.4262 24.0685Z" fill="#476FFF"/>
<path d="M29.7506 33.2483C33.1815 33.2483 35.963 29.1389 35.963 24.07C35.963 19.0009 33.1815 14.8916 29.7506 14.8916C26.3195 14.8916 23.5381 19.0009 23.5381 24.07C23.5381 29.1389 26.3195 33.2483 29.7506 33.2483Z" fill="#476FFF"/>
<path fill-rule="evenodd" clip-rule="evenodd" d="M8.10455 1.32764L1.50146 8.30603V48.166L8.10408 55.1139H68.9311L75.5338 48.166V8.27559L68.9311 1.32764H8.10455ZM9.83483 11.5789L12.415 8.92299H64.7001L67.1853 11.5834V44.9046L64.7001 47.565H12.415L9.83483 44.9091V11.5789Z" fill="#476FFF"/>
<path d="M218.611 22.1366L222.67 17.9731H237.024L243.468 24.5957V55.1714H235.416V26.9897L233.186 24.7519H222.514L219.61 27.6794V55.1714H211.545V26.9897L209.314 24.7519H200.03L195.738 29.1365V55.1714H187.673V17.9731H195.272V23.0604L200.108 17.9731H214.618L218.611 22.1366Z" fill="#476FFF"/>
<path fill-rule="evenodd" clip-rule="evenodd" d="M145.731 24.5957L152.175 17.9731H174.205L180.65 24.5957V48.5488L174.205 55.1714H152.175L145.731 48.5488V24.5957ZM170.367 48.3928L172.52 46.1548H172.533V26.9897L170.38 24.7519H156.026L153.874 26.9897V46.1548L156.013 48.3928H170.367Z" fill="#476FFF"/>
<path fill-rule="evenodd" clip-rule="evenodd" d="M365.626 17.9731L359.18 24.5957V48.5488L365.626 55.1714H387.655L394.099 48.5488V24.5957L387.655 17.9731H365.626ZM385.969 46.1548L383.818 48.3928H369.463L367.309 46.1548V26.9897L369.463 24.7519H383.818L385.969 26.9897V46.1548Z" fill="#476FFF"/>
<path d="M408.736 23.5158L414.104 17.9731H423.402V25.6757H413.494L409.204 29.9953V55.1714H401.138V17.9731H408.736V23.5158Z" fill="#476FFF"/>
<path fill-rule="evenodd" clip-rule="evenodd" d="M256.93 17.9731L250.486 24.5957V48.5488L256.93 55.1714H304.544L310.988 48.5488V24.5957L304.544 17.9731H256.93ZM302.844 46.1548L300.693 48.3928H260.755L258.604 46.1548V26.9897L260.755 24.7519H300.693L302.844 26.9897V46.1548Z" fill="#476FFF"/>
<path fill-rule="evenodd" clip-rule="evenodd" d="M339.746 17.9734L344.193 22.5923V1.26733H352.244V55.1718H344.193V50.6309L339.746 55.1718H324.394L317.95 48.5491V24.596L324.394 17.9734H339.746ZM339.9 48.3929L344.193 44.0864V29.1369L339.9 24.752H328.23L326.001 26.99V46.1551L328.23 48.3929H339.9Z" fill="#476FFF"/>
</svg>
